<svg width="294" height="80" viewBox="0 0 294 80" fill="none" xmlns="http://www.w3.org/2000/svg">
<g clip-path="url(#clip0_156_2572)">
<path d="M87.1886 9.55851C88.2814 9.55851 89.3294 9.99343 90.1022 10.7676C90.8749 11.5417 91.309 12.5917 91.309 13.6866V22.8918H101.797C102.3 22.8527 102.805 22.918 103.282 23.0839C103.758 23.2497 104.195 23.5124 104.565 23.8555C104.935 24.1986 105.23 24.6146 105.432 25.0775C105.634 25.5404 105.739 26.0401 105.739 26.5453C105.739 27.0504 105.634 27.5502 105.432 28.013C105.23 28.4759 104.935 28.892 104.565 29.235C104.195 29.5781 103.758 29.8408 103.282 30.0067C102.805 30.1725 102.3 30.2379 101.797 30.1987H91.309V59.2495C91.2676 61.6509 91.3485 64.0528 91.5514 66.4459C91.6925 67.7029 92.1809 68.8955 92.9615 69.8896C93.6454 70.6691 94.4957 71.2842 95.4493 71.6893C96.403 72.0944 97.4354 72.279 98.47 72.2296C99.9017 72.1312 101.312 71.8264 102.657 71.3245C103.65 71.0125 104.722 71.063 105.682 71.4671C106.642 71.8712 107.428 72.6027 107.901 73.532L108.099 73.9956C108.244 74.4304 108.302 74.8896 108.27 75.3469C108.237 75.8043 108.115 76.2507 107.911 76.6608C107.706 77.0708 107.423 77.4364 107.077 77.7367C106.731 78.0369 106.33 78.2659 105.896 78.4106C103.507 79.3529 100.987 79.9189 98.426 80.0883C96.1199 80.2191 93.816 79.7943 91.7075 78.8494C89.599 77.9046 87.7472 76.4673 86.3073 74.6579C84.8787 72.9224 83.9223 70.8464 83.531 68.6314C83.1292 65.5212 82.9672 62.3846 83.0462 59.2495V13.6866C83.0462 12.5917 83.4803 11.5417 84.2531 10.7676C85.0258 9.99343 86.0738 9.55851 87.1666 9.55851H87.1886ZM190.176 22.8035C191.268 22.8035 192.316 23.2385 193.089 24.0126C193.862 24.7868 194.296 25.8368 194.296 26.9316V53.1126C194.296 56.6446 194.296 59.3157 194.12 61.1258C193.927 63.3324 193.43 65.5016 192.643 67.5718C191.838 69.9629 190.531 72.1534 188.81 73.9956C184.737 77.8632 179.339 80.019 173.727 80.019C168.116 80.019 162.718 77.8632 158.645 73.9956C156.905 72.1902 155.561 70.0395 154.701 67.6821C153.915 65.5519 153.426 63.3235 153.247 61.0596C153.247 59.3598 153.07 56.8874 153.07 53.6203V26.7991C153.085 26.257 153.206 25.7231 153.426 25.2278C153.647 24.7325 153.962 24.2856 154.355 23.9125C154.748 23.5394 155.21 23.2475 155.716 23.0535C156.221 22.8594 156.76 22.767 157.301 22.7815C157.842 22.796 158.375 22.9171 158.869 23.1379C159.364 23.3588 159.81 23.675 160.182 24.0686C160.555 24.4622 160.846 24.9254 161.04 25.4318C161.233 25.9381 161.326 26.4778 161.311 27.0199V53.6424C161.311 56.4459 161.311 58.521 161.311 59.8896C161.423 61.493 161.719 63.0781 162.192 64.6137C162.644 66.1901 163.476 67.6307 164.616 68.808C167.082 71.0096 170.27 72.2261 173.573 72.2261C176.876 72.2261 180.064 71.0096 182.53 68.808C183.671 67.6351 184.497 66.1923 184.932 64.6137C185.423 63.0815 185.726 61.4952 185.835 59.8896C185.835 58.4327 185.835 56.181 185.835 53.1126V27.0199C185.835 25.9251 186.269 24.8751 187.042 24.1009C187.814 23.3268 188.863 22.8918 189.955 22.8918L190.176 22.8035ZM242.727 0.728493C243.269 0.725566 243.806 0.830343 244.307 1.03676C244.808 1.24318 245.264 1.54713 245.647 1.93104C246.03 2.31495 246.333 2.77118 246.539 3.27334C246.745 3.7755 246.85 4.31361 246.847 4.85653V52.4945C246.847 55.9161 246.847 58.4548 246.737 60.1325C246.6 62.1879 246.246 64.2229 245.679 66.2031C245.11 68.3661 244.155 70.4079 242.859 72.2296C239.143 77.4099 233.612 80.0074 226.267 80.0221C223.237 80.1184 220.22 79.5923 217.401 78.4761C214.581 77.36 212.02 75.6774 209.874 73.532C207.817 71.4472 206.251 68.9281 205.291 66.159C204.405 63.8818 203.812 61.5005 203.528 59.0729C203.352 57.2186 203.286 54.6578 203.286 51.3466C203.286 48.0353 203.286 45.0773 203.462 43.2009C203.673 40.8305 204.146 38.4909 204.872 36.2252C206.055 31.9967 208.644 28.2998 212.21 25.7466C215.777 23.1934 220.106 21.937 224.483 22.1854C227.257 22.077 230.014 22.6813 232.49 23.9409C234.965 25.2005 237.079 27.0735 238.628 29.3819V4.83445C238.628 3.73963 239.063 2.68965 239.835 1.91549C240.608 1.14133 241.656 0.706417 242.749 0.706417L242.727 0.728493ZM138.131 22.1854C139.492 22.2057 140.849 22.3461 142.186 22.6049C142.359 22.6287 142.529 22.6731 142.692 22.7373C143.562 23.0392 144.28 23.6702 144.692 24.4952C145.103 25.3202 145.177 26.2739 144.896 27.1523C144.574 28.1425 143.913 28.9869 143.03 29.5363C142.147 30.0856 141.099 30.3046 140.07 30.1545C139.414 30.0557 138.751 30.004 138.087 30C136.133 29.8629 134.172 30.1733 132.355 30.9076C130.538 31.6419 128.912 32.781 127.599 34.2384C126.66 35.4399 125.998 36.8345 125.66 38.3223C125.269 39.8637 125.018 41.4375 124.911 43.0243C124.911 44.393 124.911 46.5122 124.911 49.404V75.1877C124.911 75.7298 124.804 76.2665 124.597 76.7674C124.39 77.2682 124.087 77.7233 123.704 78.1066C123.321 78.4899 122.867 78.794 122.367 79.0015C121.867 79.2089 121.332 79.3157 120.791 79.3157C120.249 79.3157 119.714 79.2089 119.214 79.0015C118.714 78.794 118.26 78.4899 117.877 78.1066C117.494 77.7233 117.191 77.2682 116.984 76.7674C116.777 76.2665 116.67 75.7298 116.67 75.1877V49.3598C116.67 45.7175 116.67 43.0243 116.846 41.3024C117.011 39.2363 117.425 37.1977 118.08 35.2318C118.754 33.0355 119.88 31.0052 121.385 29.2715C123.461 26.9001 126.046 25.0305 128.947 23.8032C131.847 22.576 134.987 22.0229 138.131 22.1854ZM263.042 22.8918C263.583 22.8918 264.119 22.9986 264.619 23.2061C265.119 23.4135 265.573 23.7176 265.956 24.1009C266.338 24.4842 266.642 24.9393 266.849 25.4402C267.056 25.941 267.163 26.4778 267.163 27.0199V75.1877C267.163 76.2825 266.728 77.3325 265.956 78.1066C265.183 78.8808 264.135 79.3157 263.042 79.3157C261.949 79.3157 260.901 78.8808 260.129 78.1066C259.356 77.3325 258.922 76.2825 258.922 75.1877V27.0199C258.922 25.9251 259.356 24.8751 260.129 24.1009C260.901 23.3268 261.949 22.8918 263.042 22.8918ZM225.1 29.9779C223.229 29.8661 221.358 30.1793 219.626 30.8941C217.894 31.609 216.345 32.707 215.096 34.106C213.892 35.5619 213.04 37.2768 212.606 39.117C212.103 40.911 211.793 42.7537 211.681 44.6137C211.681 46.0927 211.549 48.1457 211.549 50.7947V51.8543C211.549 54.2826 211.549 56.2693 211.681 57.5276C211.817 59.3196 212.188 61.086 212.783 62.7815C213.385 64.695 214.367 66.467 215.669 67.9912C217.028 69.419 218.678 70.5367 220.507 71.2681C222.336 71.9995 224.301 72.3274 226.267 72.2296C228.059 72.3395 229.852 72.0342 231.506 71.3374C233.161 70.6406 234.633 69.5711 235.808 68.2119C236.734 66.9616 237.394 65.534 237.747 64.0177C238.146 62.537 238.404 61.0218 238.518 59.4923C238.518 58.1457 238.518 56.1369 238.518 53.4658C238.518 49.7572 238.518 46.9978 238.518 45.1877C238.405 43.1956 238.088 41.2205 237.571 39.2936C237.131 37.4024 236.281 35.6314 235.081 34.106C233.828 32.7065 232.275 31.6084 230.539 30.8937C228.803 30.1789 226.929 29.8659 225.056 29.9779H225.1ZM30.6273 0.220766C37.0771 0.288785 43.345 2.37207 48.5564 6.18001C53.7678 9.98794 57.6629 15.3306 59.6982 21.4627C61.7336 27.5947 61.8078 34.2104 59.9103 40.3867C58.0129 46.563 54.2386 51.9919 49.1138 55.9161C48.6776 56.2535 48.1786 56.5002 47.6459 56.6419C47.1133 56.7836 46.5578 56.8174 46.012 56.7414C45.4662 56.6653 44.941 56.4809 44.4672 56.199C43.9934 55.917 43.5806 55.5432 43.2528 55.0993C42.5818 54.2051 42.291 53.0813 42.4437 51.973C42.5964 50.8647 43.1803 49.8619 44.068 49.1832C47.8062 46.3715 50.5668 42.4528 51.959 37.9821C53.3511 33.5114 53.3042 28.7153 51.8249 24.2728C50.3456 19.8303 47.5089 15.9666 43.7164 13.2287C39.9239 10.4909 35.3679 9.01768 30.6934 9.01768C26.0189 9.01768 21.4629 10.4909 17.6704 13.2287C13.8779 15.9666 11.0412 19.8303 9.56188 24.2728C8.08258 28.7153 8.03567 33.5114 9.4278 37.9821C10.8199 42.4528 13.5805 46.3715 17.3187 49.1832C18.2065 49.8661 18.7915 50.8707 18.948 51.981C19.1046 53.0913 18.8202 54.2189 18.156 55.1214C17.8296 55.5662 17.4184 55.9416 16.9462 56.226C16.474 56.5103 15.9501 56.698 15.4049 56.7781C14.8598 56.8582 14.3042 56.8291 13.7704 56.6925C13.2365 56.5559 12.735 56.3145 12.295 55.9824C7.13975 52.0753 3.33249 46.6515 1.40576 40.4697C-0.520969 34.2879 -0.470786 27.6574 1.54929 21.5056C3.56937 15.3538 7.4583 9.98846 12.6721 6.16016C17.8858 2.33186 24.1636 0.232078 30.6273 0.154541V0.220766ZM33.2714 19.7572L33.6239 19.9117L41.3138 23.532C41.7942 23.7378 42.226 24.0425 42.5811 24.4264C42.9363 24.8104 43.2068 25.2649 43.3751 25.7604C43.5435 26.2559 43.6058 26.7814 43.5582 27.3026C43.5105 27.8239 43.3539 28.3292 43.0985 28.7859C42.5425 29.7029 41.6723 30.3856 40.6504 30.7066C39.6285 31.0275 38.525 30.9647 37.546 30.5298L37.3256 30.4194L30.1646 26.9978L22.8713 30.4636C21.9201 30.9542 20.8233 31.0814 19.7854 30.8214C18.7475 30.5615 17.8394 29.9321 17.2306 29.0508L16.9442 28.83C16.6972 28.394 16.5416 27.9121 16.4869 27.4138C16.4322 26.9155 16.4795 26.4113 16.626 25.9319C16.7724 25.4526 17.0149 25.0082 17.3386 24.6259C17.6623 24.2436 18.0604 23.9315 18.5086 23.7086L18.7289 23.5762L26.4188 19.9117C27.4803 19.4122 28.6343 19.1404 29.8067 19.1138C30.9792 19.0872 32.1443 19.3063 33.2273 19.7572H33.2714ZM262.998 2.69317C263.725 2.67486 264.448 2.8021 265.126 3.06744C265.803 3.33278 266.421 3.73089 266.942 4.23843C267.976 5.31932 268.554 6.75876 268.554 8.25609C268.554 9.75342 267.976 11.1928 266.942 12.2737C265.861 13.2526 264.455 13.7945 262.998 13.7945C261.541 13.7945 260.135 13.2526 259.054 12.2737C258.526 11.7509 258.112 11.1237 257.839 10.432C257.566 9.74036 257.44 8.99936 257.468 8.25609C257.436 7.51816 257.555 6.78153 257.816 6.0909C258.077 5.40026 258.476 4.77003 258.988 4.23843C260.075 3.22362 261.512 2.66985 262.998 2.69317Z" fill="white"/>
<path d="M286.993 14.0397C285.607 14.0397 284.253 13.628 283.1 12.8567C281.948 12.0853 281.05 10.989 280.52 9.70626C279.989 8.42354 279.851 7.01208 280.121 5.65036C280.391 4.28864 281.059 3.03782 282.039 2.05607C283.019 1.07433 284.267 0.405751 285.626 0.134888C286.985 -0.135975 288.394 0.00304066 289.675 0.534358C290.955 1.06567 292.049 1.96543 292.819 3.11984C293.589 4.27425 294 5.63147 294 7.01987C294 8.88166 293.262 10.6672 291.948 11.9837C290.634 13.3001 288.851 14.0397 286.993 14.0397ZM286.993 1.12583C286.218 1.11999 285.449 1.26829 284.732 1.56215C284.014 1.85601 283.362 2.28958 282.812 2.83777C282.263 3.38596 281.828 4.03786 281.532 4.75573C281.236 5.4736 281.085 6.24317 281.088 7.01987C281.039 7.8257 281.155 8.6331 281.429 9.39235C281.703 10.1516 282.129 10.8466 282.681 11.4347C283.233 12.0227 283.9 12.4913 284.639 12.8116C285.379 13.132 286.176 13.2972 286.982 13.2972C287.788 13.2972 288.585 13.132 289.325 12.8116C290.065 12.4913 290.731 12.0227 291.283 11.4347C291.835 10.8466 292.262 10.1516 292.536 9.39235C292.809 8.6331 292.925 7.8257 292.876 7.01987C292.885 6.24339 292.739 5.47297 292.446 4.75386C292.154 4.03475 291.721 3.38147 291.173 2.83238C290.625 2.28329 289.973 1.84947 289.255 1.55641C288.537 1.26335 287.768 1.11696 286.993 1.12583ZM288.888 11.0596L286.795 7.8808H285.473V11.0596H284.283V3.02428H287.566C288.233 3.01215 288.878 3.2616 289.364 3.7194C289.849 4.1772 290.137 4.80708 290.166 5.47462C290.176 6.0548 289.973 6.61851 289.595 7.05823C289.217 7.49794 288.691 7.78289 288.117 7.85872L290.32 11.0596H288.888ZM287.566 4.01766H285.473V6.86535H287.566C287.768 6.89053 287.972 6.8725 288.166 6.81246C288.36 6.75242 288.539 6.65173 288.691 6.51709C288.844 6.38244 288.965 6.21691 289.049 6.03147C289.132 5.84603 289.176 5.64493 289.176 5.4415C289.176 5.23808 289.132 5.03697 289.049 4.85154C288.965 4.6661 288.844 4.50057 288.691 4.36592C288.539 4.23127 288.36 4.13059 288.166 4.07055C287.972 4.0105 287.768 3.99248 287.566 4.01766Z" fill="white"/>
</g>
<defs>
<clipPath id="clip0_156_2572">
<rect width="294" height="80" fill="white"/>
</clipPath>
</defs>
</svg>
