<svg width="151" height="95" viewBox="0 0 151 95" fill="none" xmlns="http://www.w3.org/2000/svg">
<path d="M14.0208 44.1831C6.10516 40.011 2.14733 33.4607 2.14733 24.5323C2.14733 20.0264 3.32626 15.9376 5.68411 12.2661C8.04197 8.5112 11.6209 5.54897 16.4208 3.37945C21.2207 1.12649 27.1153 0 34.1047 0C41.094 0 46.9465 1.12649 51.6623 3.37945C56.4622 5.54897 60.0411 8.5112 62.3989 12.2661C64.7568 15.9376 65.9357 20.0264 65.9357 24.5323C65.9357 29.0382 64.841 32.96 62.6515 36.2978C60.5463 39.6355 57.6832 42.2639 54.0622 44.1831C58.6095 46.3527 62.1042 49.3566 64.5462 53.195C66.9883 56.9499 68.2093 61.3724 68.2093 66.4624C68.2093 72.3869 66.6936 77.5187 63.6621 81.8577C60.6305 86.1133 56.5043 89.3676 51.2833 91.6205C46.1466 93.8735 40.4203 95 34.1047 95C27.789 95 22.0207 93.8735 16.7997 91.6205C11.663 89.3676 7.57881 86.1133 4.54729 81.8577C1.51576 77.5187 0 72.3869 0 66.4624C0 61.289 1.22103 56.8248 3.66309 53.0698C6.10516 49.2314 9.55773 46.2692 14.0208 44.1831ZM44.9676 27.7866C44.9676 24.3654 43.9571 21.7369 41.9361 19.9012C39.9993 17.982 37.3888 17.0224 34.1047 17.0224C30.8205 17.0224 28.1679 17.982 26.1469 19.9012C24.2101 21.8204 23.2417 24.4906 23.2417 27.9117C23.2417 31.166 24.2522 33.7528 26.2732 35.6719C28.2942 37.5077 30.9047 38.4256 34.1047 38.4256C37.3046 38.4256 39.9151 37.466 41.9361 35.5468C43.9571 33.6276 44.9676 31.0408 44.9676 27.7866ZM34.1047 53.4453C30.1468 53.4453 26.9469 54.5301 24.5048 56.6996C22.0628 58.7857 20.8417 61.7062 20.8417 65.4611C20.8417 68.9657 22.0207 71.8445 24.3785 74.0975C26.8206 76.3505 30.0626 77.4769 34.1047 77.4769C38.1467 77.4769 41.3045 76.3505 43.5782 74.0975C45.936 71.8445 47.115 68.9657 47.115 65.4611C47.115 61.7896 45.8939 58.8691 43.4519 56.6996C41.094 54.5301 37.9783 53.4453 34.1047 53.4453Z" fill="#38DBD0"/>
<path d="M145.695 20.527H106.285V37.7997C107.969 35.964 110.327 34.462 113.359 33.2938C116.39 32.1256 119.674 31.5415 123.211 31.5415C129.527 31.5415 134.748 32.96 138.874 35.7971C143.084 38.6342 146.158 42.3057 148.095 46.8116C150.032 51.3175 151 56.1989 151 61.4559C151 71.2187 148.221 78.9789 142.663 84.7365C137.105 90.4106 129.274 93.2477 119.169 93.2477C112.432 93.2477 106.58 92.1212 101.611 89.8682C96.6431 87.5318 92.8115 84.3193 90.1168 80.2306C87.4222 76.1418 85.9485 71.4273 85.6959 66.087H106.79C107.296 68.6737 108.517 70.8432 110.453 72.5955C112.39 74.2644 115.043 75.0988 118.411 75.0988C122.369 75.0988 125.316 73.8472 127.253 71.3439C129.19 68.8406 130.158 65.5029 130.158 61.3307C130.158 57.242 129.148 54.1129 127.127 51.9433C125.106 49.7738 122.158 48.6891 118.285 48.6891C115.422 48.6891 113.064 49.3983 111.211 50.8169C109.359 52.152 108.138 53.946 107.548 56.1989H86.7064V1.75232H145.695V20.527Z" fill="#38DBD0"/>
</svg>
