<svg width="24" height="24" viewBox="0 0 24 24" fill="none" xmlns="http://www.w3.org/2000/svg">
<g id="Bullist">
<path id="Vector" fill-rule="evenodd" clip-rule="evenodd" d="M4.70341 17.7455L17.9892 4.45975C18.5912 3.85768 19.394 3.85768 19.9961 4.45975C20.5982 5.06183 20.5982 5.8646 19.9961 6.46667L6.71033 19.7524C6.4442 20.0186 6.08324 20.1681 5.70687 20.1681C5.3305 20.1681 4.96955 20.0186 4.70341 19.7524C4.43728 19.4863 4.28776 19.1253 4.28776 18.749C4.28776 18.3726 4.43728 18.0116 4.70341 17.7455Z" fill="#646464"/>
<path id="Vector_2" d="M19.9965 17.7118L6.71074 4.42607C6.4446 4.15993 6.08365 4.01042 5.70728 4.01042C5.3309 4.01042 4.96995 4.15993 4.70382 4.42607C4.43768 4.6922 4.28817 5.05316 4.28817 5.42953C4.28817 5.8059 4.43768 6.16685 4.70382 6.43299L17.9896 19.7187C18.5916 20.3208 19.3944 20.3208 19.9965 19.7187C20.5986 19.1167 20.5986 18.3139 19.9965 17.7118Z" fill="#646464"/>
</g>
</svg>
