<svg width="24" height="24" viewBox="0 0 24 24" fill="none" xmlns="http://www.w3.org/2000/svg">
<g id="Bullist">
<path id="Vector" fill-rule="evenodd" clip-rule="evenodd" d="M6.83333 15.9167H17.8666C18.3666 15.9167 18.6999 16.25 18.6999 16.75C18.6999 17.25 18.3666 17.5834 17.8666 17.5834H6.83333C6.61232 17.5834 6.40036 17.4956 6.24408 17.3393C6.0878 17.183 6 16.971 6 16.75C6 16.529 6.0878 16.317 6.24408 16.1608C6.40036 16.0045 6.61232 15.9167 6.83333 15.9167Z" fill="#646464"/>
<path id="Vector_2" d="M17.8666 5.91669H6.83333C6.61232 5.91669 6.40036 6.00448 6.24408 6.16076C6.0878 6.31705 6 6.52901 6 6.75002C6 6.97103 6.0878 7.183 6.24408 7.33928C6.40036 7.49556 6.61232 7.58335 6.83333 7.58335H17.8666C18.3666 7.58335 18.6999 7.25002 18.6999 6.75002C18.6999 6.25002 18.3666 5.91669 17.8666 5.91669Z" fill="#646464"/>
<path id="Vector_3" d="M17.8666 10.9167H6.83333C6.61232 10.9167 6.40036 11.0045 6.24408 11.1608C6.0878 11.317 6 11.529 6 11.75C6 11.971 6.0878 12.183 6.24408 12.3393C6.40036 12.4956 6.61232 12.5834 6.83333 12.5834H17.8666C18.3666 12.5834 18.6999 12.25 18.6999 11.75C18.6999 11.25 18.3666 10.9167 17.8666 10.9167Z" fill="#646464"/>
</g>
</svg>
