<svg width="1440" height="266" viewBox="0 0 1440 266" fill="none" xmlns="http://www.w3.org/2000/svg">
<g clip-path="url(#clip0_1354_10597)">
<path d="M310.706 126.38H155.591V231.587H310.706V126.38Z" fill="#CBEFEB"/>
<path d="M316.335 132.621H149.962V154.449H316.335V132.621Z" fill="#CBEFEB"/>
<path d="M263.543 92.4834H202.822V110.414H263.543V92.4834Z" fill="#CBEFEB"/>
<path d="M168.497 92.4834H163.726V110.414H168.497V92.4834Z" fill="#CBEFEB"/>
<path d="M304.115 92.4834H299.31V110.414H304.115V92.4834Z" fill="#CBEFEB"/>
<path d="M306.793 94.4492H159.539V98.3458H306.793V94.4492Z" fill="#CBEFEB"/>
<path d="M316.335 162.621H149.962V184.449H316.335V162.621Z" fill="#CBEFEB"/>
<path d="M316.335 196.276H149.962V218.104H316.335V196.276Z" fill="#CBEFEB"/>
<path d="M307.342 107.311H158.955V129.104H307.342V107.311Z" fill="#CBEFEB"/>
<path d="M307.342 109.621H158.955V131.449H307.342V109.621Z" fill="#CBEFEB"/>
<path d="M218.99 79.7244C219.107 81.5604 218.671 83.3894 217.74 84.9737C216.809 86.558 215.426 87.8244 213.769 88.6084C212.112 89.3925 210.259 89.6579 208.45 89.3702C206.641 89.0825 204.96 88.255 203.626 86.9951C202.291 85.7353 201.364 84.1014 200.966 82.3057C200.568 80.5099 200.716 78.6353 201.392 76.9254C202.068 75.2155 203.24 73.7493 204.756 72.7173C206.272 71.6852 208.062 71.1351 209.893 71.1382C211.052 71.1014 212.206 71.2944 213.291 71.7061C214.375 72.1177 215.368 72.7401 216.213 73.5375C217.058 74.3349 217.738 75.2918 218.214 76.3534C218.691 77.4149 218.954 78.5605 218.99 79.7244Z" fill="#CBEFEB"/>
<path d="M210.923 83.0352H208.829V98.8627H210.923V83.0352Z" fill="#CBEFEB"/>
<path d="M242.399 79.7244C242.516 81.5604 242.081 83.3894 241.15 84.9737C240.219 86.558 238.835 87.8244 237.178 88.6084C235.522 89.3925 233.668 89.6579 231.86 89.3702C230.051 89.0825 228.37 88.255 227.035 86.9951C225.701 85.7353 224.774 84.1014 224.376 82.3057C223.977 80.5099 224.126 78.6353 224.802 76.9254C225.477 75.2155 226.65 73.7493 228.166 72.7173C229.682 71.6852 231.472 71.1351 233.303 71.1382C234.462 71.1014 235.616 71.2944 236.7 71.7061C237.785 72.1177 238.778 72.7401 239.623 73.5375C240.467 74.3349 241.147 75.2918 241.624 76.3534C242.1 77.4149 242.364 78.5605 242.399 79.7244Z" fill="#CBEFEB"/>
<path d="M234.332 83.0352H232.239V98.8627H234.332V83.0352Z" fill="#CBEFEB"/>
<path d="M264.539 79.7244C264.656 81.5604 264.22 83.3894 263.289 84.9737C262.358 86.558 260.975 87.8244 259.318 88.6084C257.661 89.3925 255.808 89.6579 253.999 89.3702C252.19 89.0825 250.509 88.255 249.175 86.9951C247.84 85.7353 246.913 84.1014 246.515 82.3057C246.117 80.5099 246.265 78.6353 246.941 76.9254C247.617 75.2155 248.789 73.7493 250.305 72.7173C251.821 71.6852 253.611 71.1351 255.443 71.1382C256.601 71.1014 257.756 71.2944 258.84 71.7061C259.924 72.1177 260.917 72.7401 261.762 73.5375C262.607 74.3349 263.287 75.2918 263.763 76.3534C264.24 77.4149 264.503 78.5605 264.539 79.7244Z" fill="#CBEFEB"/>
<path d="M256.472 83.0352H254.379V98.8627H256.472V83.0352Z" fill="#CBEFEB"/>
<path d="M970.777 191.414C971.031 195.465 970.068 199.499 968.011 202.993C965.954 206.487 962.9 209.279 959.244 211.006C955.587 212.734 951.499 213.317 947.508 212.681C943.518 212.044 939.81 210.217 936.866 207.437C933.923 204.657 931.879 201.052 931.001 197.09C930.123 193.128 930.45 188.992 931.941 185.22C933.433 181.447 936.018 178.212 939.363 175.935C942.707 173.657 946.656 172.443 950.696 172.449C955.86 172.3 960.871 174.212 964.635 177.766C968.398 181.321 970.606 186.228 970.777 191.414Z" fill="#CBEFEB"/>
<path d="M952.996 199.069H948.363V234.104H952.996V199.069Z" fill="#CBEFEB"/>
<path d="M1315.95 127.794C1316.2 131.843 1315.24 135.876 1313.19 139.369C1311.13 142.862 1308.08 145.654 1304.42 147.383C1300.77 149.111 1296.68 149.696 1292.69 149.063C1288.7 148.429 1285 146.606 1282.05 143.829C1279.11 141.052 1277.06 137.45 1276.18 133.491C1275.3 129.531 1275.62 125.397 1277.1 121.624C1278.59 117.851 1281.17 114.613 1284.51 112.332C1287.85 110.05 1291.8 108.83 1295.83 108.828C1301 108.67 1306.02 110.578 1309.79 114.134C1313.57 117.689 1315.78 122.602 1315.95 127.794Z" fill="#CBEFEB"/>
<path d="M1298.13 135.448H1293.5V170.483H1298.13V135.448Z" fill="#CBEFEB"/>
<path d="M1419.75 174.449C1420 178.5 1419.04 182.534 1416.98 186.028C1414.93 189.522 1411.87 192.314 1408.21 194.041C1404.56 195.769 1400.47 196.352 1396.48 195.716C1392.49 195.079 1388.78 193.252 1385.84 190.472C1382.89 187.692 1380.85 184.087 1379.97 180.125C1379.09 176.163 1379.42 172.027 1380.91 168.255C1382.4 164.482 1384.99 161.247 1388.33 158.97C1391.68 156.693 1395.63 155.478 1399.67 155.484C1404.83 155.335 1409.84 157.247 1413.61 160.801C1417.37 164.356 1419.58 169.263 1419.75 174.449Z" fill="#CBEFEB"/>
<path d="M1401.97 182.104H1397.33V217.139H1401.97V182.104Z" fill="#CBEFEB"/>
<path d="M147.284 192.449H86.9751V217.932H147.284V192.449Z" fill="#CBEFEB"/>
<path d="M86.9751 192.449L117.112 177.276L147.284 192.449H86.9751Z" fill="#CBEFEB"/>
<path d="M86.9067 192.448L117.078 177.311L147.25 192.448H86.9067Z" fill="#CBEFEB"/>
<path d="M892.962 75.3105H697.824V158.897H892.962V75.3105Z" fill="#CBEFEB"/>
<path d="M697.824 75.3107L795.41 25.6211L892.962 75.3107H697.824Z" fill="#CBEFEB"/>
<path d="M697.721 75.3801L795.272 25.6904L892.824 75.3801H697.721Z" fill="#CBEFEB"/>
<path d="M1320.21 153.656H1059.4V254.173H1320.21V153.656Z" fill="#CBEFEB"/>
<path d="M742.412 200.828H481.61V254.173H742.412V200.828Z" fill="#CBEFEB"/>
<path d="M1111.1 200.828H850.296V254.173H1111.1V200.828Z" fill="#CBEFEB"/>
<path d="M1439.35 200.828H1178.55V254.173H1439.35V200.828Z" fill="#CBEFEB"/>
<path d="M261.244 215.862H46.1973V251.483H261.244V215.862Z" fill="#CBEFEB"/>
<path d="M1258.94 129.896H1111.13V232.69H1258.94V129.896Z" fill="#CBEFEB"/>
<path d="M925.639 94.6904H660.341V254.139H925.639V94.6904Z" fill="#CBEFEB"/>
<path d="M1051.72 133.862H950.525V254.138H1051.72V133.862Z" fill="#CBEFEB"/>
<path d="M637.858 14.4141H542.675V254.173H637.858V14.4141Z" fill="#CBEFEB"/>
<path d="M959.346 48.7246H923.751V240.621H959.346V48.7246Z" fill="#CBEFEB"/>
<path d="M607.137 105.449H511.954V254.139H607.137V105.449Z" fill="#CBEFEB"/>
<path d="M493.865 125.069H333.189V249.828H493.865V125.069Z" fill="#CBEFEB"/>
<path d="M495.889 127.587H331.129V134.104H495.889V127.587Z" fill="#CBEFEB"/>
<path d="M333.189 125.07L413.51 102.794L493.865 125.07H333.189Z" fill="#CBEFEB"/>
<path d="M333.085 125.07L413.406 91.1387L493.727 125.07H333.085Z" fill="#CBEFEB"/>
<path d="M173.131 200.483H154.424V210.828H173.131V200.483Z" fill="#CBEFEB"/>
<path d="M142.753 200.483H124.046V210.828H142.753V200.483Z" fill="#CBEFEB"/>
<path d="M547.858 130.621H537.32V141.207H547.858V130.621Z" fill="#CBEFEB"/>
<path d="M85.2589 175.966C85.6097 181.608 84.265 187.226 81.3992 192.09C78.5333 196.955 74.2786 200.843 69.1867 203.249C64.0949 205.655 58.4008 206.469 52.8431 205.584C47.2853 204.7 42.1203 202.158 38.0178 198.289C33.9154 194.42 31.0647 189.402 29.8357 183.886C28.6066 178.369 29.0558 172.609 31.125 167.352C33.1942 162.096 36.7879 157.585 41.4401 154.404C46.0923 151.224 51.5883 149.522 57.2153 149.518C64.4213 149.304 71.4182 151.967 76.6741 156.924C81.93 161.881 85.0169 168.728 85.2589 175.966Z" fill="#CBEFEB"/>
<path d="M60.4419 186.621H53.9888V235.449H60.4419V186.621Z" fill="#CBEFEB"/>
<path d="M1258.04 90.7932C1258.39 96.4366 1257.05 102.056 1254.18 106.921C1251.31 111.787 1247.06 115.675 1241.96 118.08C1236.87 120.485 1231.17 121.297 1225.61 120.409C1220.06 119.522 1214.89 116.977 1210.79 113.105C1206.69 109.232 1203.84 104.211 1202.61 98.6918C1201.39 93.173 1201.84 87.4117 1203.92 82.1555C1205.99 76.8992 1209.59 72.3906 1214.25 69.2147C1218.91 66.0387 1224.41 64.3421 1230.03 64.3449C1237.24 64.1312 1244.23 66.7953 1249.48 71.7532C1254.73 76.711 1257.81 83.5581 1258.04 90.7932Z" fill="#CBEFEB"/>
<path d="M1233.26 101.483H1226.81V150.311H1233.26V101.483Z" fill="#CBEFEB"/>
<path d="M1110.65 178.932H1104.2V227.759H1110.65V178.932Z" fill="#CBEFEB"/>
<path d="M1076.22 205.345H1046.67V226.655H1076.22V205.345Z" fill="#CBEFEB"/>
<path d="M751.577 200.242H689.62V207.863H751.577V200.242Z" fill="#CBEFEB"/>
<path d="M391.507 185.483H375.271V202.173H391.507V185.483Z" fill="#CBEFEB"/>
<path d="M950.25 149.414L1001.09 98.3105L1051.96 149.414H950.25Z" fill="#CBEFEB"/>
<path d="M1000.54 189.587H829.495V208.07H1000.54V189.587Z" fill="#CBEFEB"/>
<path d="M173.818 211.104H106.747V245.172H173.818V211.104Z" fill="#33BBB2"/>
<path d="M103.314 212.276L136.85 178.586L170.385 212.276H103.314Z" fill="#33BBB2"/>
<path d="M191.015 211.104H123.943V245.172H191.015V211.104Z" fill="#33BBB2"/>
<path d="M209.001 244.586H123.943V253.448H209.001V244.586Z" fill="#33BBB2"/>
<path d="M191.804 244.586H106.747V253.448H191.804V244.586Z" fill="#33BBB2"/>
<path d="M200.763 240.517H115.705V249.379H200.763V240.517Z" fill="#33BBB2"/>
<path d="M209.035 244.207H200.179V245.552H209.035V244.207Z" fill="#33BBB2"/>
<path d="M207.731 242.862H198.875V244.207H207.731V242.862Z" fill="#33BBB2"/>
<path d="M206.426 241.517H197.571V242.861H206.426V241.517Z" fill="#33BBB2"/>
<path d="M205.088 240.173H187.822V241.518H205.088V240.173Z" fill="#33BBB2"/>
<path d="M203.818 238.827H188.783V240.241H203.818V238.827Z" fill="#33BBB2"/>
<path d="M128.371 212.276L161.907 178.586L195.442 212.276H128.371Z" fill="#33BBB2"/>
<path d="M201.552 218.62H198.669V245.551H201.552V218.62Z" fill="#33BBB2"/>
<path d="M204.676 217.448H190.534V223.793H204.676V217.448Z" fill="#33BBB2"/>
<path d="M450.787 190.828H316.026V255.173H450.787V190.828Z" fill="#33BBB2"/>
<path d="M345.305 190.828L383.372 152.552L421.472 190.828H345.305Z" fill="#33BBB2"/>
<path d="M345.237 190.862L383.338 152.621L421.404 190.862H345.237Z" fill="#33BBB2"/>
<path d="M260.385 194.931H216.243V254.965H260.385V194.931Z" fill="#33BBB2"/>
<path d="M309.882 216.172H254.138V254.965H309.882V216.172Z" fill="#33BBB2"/>
<path d="M216.243 194.931L238.314 172.759L260.385 194.931H216.243Z" fill="#33BBB2"/>
<path d="M216.209 194.965L238.28 172.793L260.351 194.965H216.209Z" fill="#33BBB2"/>
<path d="M310.259 219.862H284.447V254.966H310.259V219.862Z" fill="#33BBB2"/>
<path d="M312.045 219.862H286.232V254.966H312.045V219.862Z" fill="#33BBB2"/>
<path d="M239.962 219.862H214.15V254.966H239.962V219.862Z" fill="#33BBB2"/>
<path d="M284.447 221.862L297.319 208.896L310.225 221.862H284.447Z" fill="#33BBB2"/>
<path d="M259.802 221.862L272.708 208.896L285.649 221.862H259.802Z" fill="#33BBB2"/>
<path d="M1225.09 163.861H1159.5V223.896H1225.09V163.861Z" fill="#33BBB2"/>
<path d="M1159.5 163.862L1192.31 141.689L1225.09 163.862H1159.5Z" fill="#33BBB2"/>
<path d="M1159.43 165.035L1192.24 142.862L1225.06 165.035H1159.43Z" fill="#33BBB2"/>
<path d="M751.577 182.931H603.43V254.931H751.577V182.931Z" fill="#33BBB2"/>
<path d="M678.293 147.931H624.952V219.931H678.293V147.931Z" fill="#33BBB2"/>
<path d="M577.446 123.241H507.835V254.965H577.446V123.241Z" fill="#33BBB2"/>
<path d="M507.766 124.621L542.571 100.241L577.377 124.621H507.766Z" fill="#33BBB2"/>
<path d="M615.581 243.966H470.112V254.931H615.581V243.966Z" fill="#33BBB2"/>
<path d="M609.368 238.689H476.359V249.655H609.368V238.689Z" fill="#33BBB2"/>
<path d="M645.238 249.104H463.212V254.966H645.238V249.104Z" fill="#33BBB2"/>
<path d="M590.97 140.275H494.722V250.275H590.97V140.275Z" fill="#33BBB2"/>
<path d="M596.359 140.275H489.368V146.31H596.359V140.275Z" fill="#33BBB2"/>
<path d="M596.359 172.068H489.368V178.103H596.359V172.068Z" fill="#33BBB2"/>
<path d="M596.359 206.517H489.368V212.551H596.359V206.517Z" fill="#33BBB2"/>
<path d="M491.53 128.104H489.368V143.69H491.53V128.104Z" fill="#33BBB2"/>
<path d="M496.199 128.104H494.036V143.69H496.199V128.104Z" fill="#33BBB2"/>
<path d="M500.901 128.104H498.739V143.69H500.901V128.104Z" fill="#33BBB2"/>
<path d="M505.603 128.104H503.441V143.69H505.603V128.104Z" fill="#33BBB2"/>
<path d="M582.08 128.104H579.917V143.69H582.08V128.104Z" fill="#33BBB2"/>
<path d="M586.782 128.104H584.62V143.69H586.782V128.104Z" fill="#33BBB2"/>
<path d="M591.485 128.104H589.322V143.69H591.485V128.104Z" fill="#33BBB2"/>
<path d="M596.187 128.104H594.025V143.69H596.187V128.104Z" fill="#33BBB2"/>
<path d="M596.359 127.448H489.368V128.586H596.359V127.448Z" fill="#33BBB2"/>
<path d="M1379.05 198.922H1129.49V254.435H1379.05V198.922Z" fill="#33BBB2"/>
<path d="M1129.49 198.921L1254.29 164.226L1379.05 198.921H1129.49Z" fill="#33BBB2"/>
<path d="M732.321 164.034C732.458 166.104 731.973 168.168 730.929 169.957C729.884 171.747 728.328 173.179 726.463 174.069C724.597 174.959 722.509 175.265 720.468 174.947C718.428 174.629 716.53 173.702 715.02 172.287C713.51 170.871 712.459 169.033 712.003 167.009C711.547 164.986 711.707 162.872 712.462 160.941C713.217 159.01 714.532 157.352 716.237 156.182C717.942 155.012 719.958 154.384 722.023 154.379C723.331 154.333 724.634 154.546 725.859 155.007C727.085 155.467 728.208 156.166 729.164 157.063C730.121 157.959 730.892 159.037 731.433 160.233C731.975 161.429 732.276 162.721 732.321 164.034Z" fill="#33BBB2"/>
<path d="M723.259 167.966H720.89V185.862H723.259V167.966Z" fill="#33BBB2"/>
<path d="M620.97 164.034C621.108 166.104 620.623 168.168 619.578 169.957C618.534 171.746 616.978 173.179 615.112 174.069C613.247 174.959 611.158 175.264 609.118 174.947C607.077 174.629 605.179 173.702 603.669 172.286C602.16 170.871 601.109 169.032 600.652 167.009C600.196 164.986 600.356 162.872 601.111 160.941C601.866 159.01 603.182 157.352 604.887 156.182C606.592 155.012 608.608 154.384 610.673 154.379C613.311 154.295 615.874 155.264 617.804 157.073C619.733 158.882 620.872 161.385 620.97 164.034Z" fill="#33BBB2"/>
<path d="M611.908 167.966H609.54V185.862H611.908V167.966Z" fill="#33BBB2"/>
<path d="M487.068 226.207C487.192 228.138 486.735 230.062 485.757 231.729C484.779 233.397 483.325 234.73 481.583 235.557C479.842 236.384 477.893 236.666 475.99 236.366C474.087 236.067 472.317 235.2 470.91 233.878C469.504 232.555 468.525 230.839 468.101 228.951C467.678 227.063 467.828 225.091 468.534 223.29C469.24 221.49 470.468 219.944 472.059 218.853C473.65 217.762 475.531 217.176 477.457 217.172C478.679 217.131 479.897 217.332 481.041 217.763C482.186 218.195 483.234 218.849 484.127 219.688C485.019 220.527 485.738 221.535 486.243 222.653C486.748 223.772 487.028 224.979 487.068 226.207Z" fill="#33BBB2"/>
<path d="M478.555 229.862H476.359V246.552H478.555V229.862Z" fill="#33BBB2"/>
<path d="M773.236 229.552C773.339 231.167 772.957 232.776 772.138 234.17C771.319 235.564 770.101 236.679 768.644 237.368C767.186 238.058 765.555 238.292 763.964 238.039C762.373 237.785 760.894 237.057 759.72 235.948C758.545 234.84 757.73 233.402 757.38 231.822C757.03 230.242 757.161 228.593 757.757 227.089C758.352 225.584 759.383 224.295 760.718 223.387C762.052 222.48 763.627 221.996 765.238 222C767.294 221.944 769.287 222.706 770.785 224.121C772.283 225.536 773.164 227.488 773.236 229.552Z" fill="#33BBB2"/>
<path d="M766.199 232.62H764.346V246.586H766.199V232.62Z" fill="#33BBB2"/>
<path d="M706.234 164.034C706.371 166.104 705.886 168.168 704.842 169.957C703.797 171.747 702.241 173.179 700.376 174.069C698.511 174.959 696.422 175.265 694.381 174.947C692.341 174.629 690.443 173.702 688.933 172.287C687.423 170.871 686.372 169.033 685.916 167.009C685.46 164.986 685.62 162.872 686.375 160.941C687.13 159.01 688.445 157.352 690.15 156.182C691.855 155.012 693.871 154.384 695.936 154.379C697.244 154.333 698.547 154.546 699.773 155.007C700.998 155.467 702.121 156.166 703.077 157.063C704.034 157.959 704.805 159.037 705.346 160.233C705.888 161.429 706.19 162.721 706.234 164.034Z" fill="#33BBB2"/>
<path d="M697.172 167.966H694.803V185.862H697.172V167.966Z" fill="#33BBB2"/>
<path d="M89.2745 226.104H55.3613V254.966H89.2745V226.104Z" fill="#33BBB2"/>
<path d="M51.8608 227.103L72.3186 198.586L92.7763 227.103H51.8608Z" fill="#33BBB2"/>
<path d="M46.54 216.586C46.7464 219.946 45.9433 223.29 44.2349 226.185C42.5264 229.08 39.9915 231.392 36.9588 232.822C33.9262 234.252 30.5357 234.734 27.2272 234.205C23.9187 233.676 20.8448 232.16 18.4042 229.855C15.9636 227.549 14.2688 224.56 13.5398 221.275C12.8107 217.99 13.081 214.561 14.3156 211.432C15.5502 208.304 17.692 205.62 20.4634 203.729C23.2348 201.838 26.5079 200.827 29.858 200.828C34.1497 200.698 38.3172 202.284 41.4451 205.239C44.5731 208.194 46.4055 212.275 46.54 216.586Z" fill="#33BBB2"/>
<path d="M31.7804 222.931H27.936V252H31.7804V222.931Z" fill="#33BBB2"/>
<path d="M1007.98 240.655C1003.64 238.453 999.645 235.605 996.143 232.207C998.566 231.969 1000.95 231.436 1003.25 230.621C999.513 228.326 996.126 225.504 993.191 222.241C995.536 222.086 997.847 221.599 1000.06 220.793C996.972 218.797 994.187 216.37 991.783 213.586C993.712 213.394 995.62 213.025 997.481 212.483C994.755 210.969 992.333 208.958 990.342 206.552C991.831 206.471 993.3 206.169 994.701 205.655C991.689 203.866 989.294 201.195 987.836 198C986.279 201.194 983.819 203.857 980.765 205.655C982.17 206.159 983.637 206.472 985.124 206.586C983.156 208.899 980.84 210.889 978.259 212.483C980.009 213.067 981.815 213.46 983.648 213.655C981.223 216.345 978.493 218.741 975.513 220.793C977.661 221.543 979.882 222.063 982.138 222.345C979.237 225.44 976.015 228.214 972.527 230.621C974.665 231.393 976.872 231.959 979.118 232.31C975.632 235.592 971.731 238.398 967.516 240.655C973.592 242.443 979.891 243.349 986.223 243.345V253.345C986.223 253.784 986.396 254.205 986.705 254.515C987.014 254.826 987.433 255 987.87 255C988.305 254.991 988.719 254.814 989.026 254.505C989.333 254.197 989.509 253.781 989.518 253.345V243.31C995.753 243.115 1001.95 242.225 1007.98 240.655Z" fill="#33BBB2"/>
<path d="M1102.41 230.586H1020.48V254.965H1102.41V230.586Z" fill="#33BBB2"/>
<path d="M1102.41 184.828H1020.48V223.311H1102.41V184.828Z" fill="#33BBB2"/>
<path d="M1008.4 168.689H820.227V254.965H1008.4V168.689Z" fill="#33BBB2"/>
<path d="M861.966 168.69L915.136 115.276L968.305 168.69H861.966Z" fill="#33BBB2"/>
<path d="M861.108 170.551L914.278 117.138L967.482 170.551H861.108Z" fill="#33BBB2"/>
<path d="M1008.74 155.62H999.404V254.965H1008.74V155.62Z" fill="#33BBB2"/>
<path d="M829.46 155.62H820.124V254.965H829.46V155.62Z" fill="#33BBB2"/>
<path d="M874.186 179.207H865.502V243.69H874.186V179.207Z" fill="#33BBB2"/>
<path d="M919.632 179.207H910.948V243.69H919.632V179.207Z" fill="#33BBB2"/>
<path d="M965.044 179.207H956.394V243.69H965.044V179.207Z" fill="#33BBB2"/>
<path d="M181.746 238.552H119.515V255.897H181.746V238.552Z" fill="#38DBD0"/>
<path d="M753.465 249.862H2.56982V256.38H753.465V249.862Z" fill="#38DBD0"/>
<path d="M1440 252.242H-1V266.035H1440V252.242Z" fill="#38DBD0"/>
<path d="M491.084 218.38H357.491V256.552H491.084V218.38Z" fill="#38DBD0"/>
<path d="M585.89 227.483H547.96V255.897H585.89V227.483Z" fill="#38DBD0"/>
<path d="M673.659 245.069H661.576V256.242H673.659V245.069Z" fill="#38DBD0"/>
<path d="M697.412 245.069H685.33V256.242H697.412V245.069Z" fill="#38DBD0"/>
<path d="M721.165 245.069H709.082V256.242H721.165V245.069Z" fill="#38DBD0"/>
<path d="M603.052 245.069H590.97V256.242H603.052V245.069Z" fill="#38DBD0"/>
<path d="M626.805 245.069H614.723V256.242H626.805V245.069Z" fill="#38DBD0"/>
<path d="M66.0365 245.553H53.9541V252.173H66.0365V245.553Z" fill="#38DBD0"/>
<path d="M47.2953 245.553H35.2129V252.173H47.2953V245.553Z" fill="#38DBD0"/>
<path d="M28.8974 245.553H16.8149V252.173H28.8974V245.553Z" fill="#38DBD0"/>
<path d="M650.558 245.069H638.476V256.242H650.558V245.069Z" fill="#38DBD0"/>
<path d="M744.952 245.069H732.835V256.242H744.952V245.069Z" fill="#38DBD0"/>
<path d="M768.671 245.069H756.588V256.242H768.671V245.069Z" fill="#38DBD0"/>
<path d="M792.423 245.069H780.341V256.242H792.423V245.069Z" fill="#38DBD0"/>
<path d="M816.211 245.069H804.094V256.242H816.211V245.069Z" fill="#38DBD0"/>
<path d="M839.929 245.069H827.847V256.242H839.929V245.069Z" fill="#38DBD0"/>
<path d="M863.683 245.069H851.6V256.242H863.683V245.069Z" fill="#38DBD0"/>
<path d="M887.47 245.069H875.387V256.242H887.47V245.069Z" fill="#38DBD0"/>
<path d="M911.222 245.069H899.14V256.242H911.222V245.069Z" fill="#38DBD0"/>
<path d="M934.975 245.069H922.893V256.242H934.975V245.069Z" fill="#38DBD0"/>
<path d="M86.8382 240.035H70.3965V255.897H86.8382V240.035Z" fill="#38DBD0"/>
<path d="M130.019 230.173C130.081 231.222 129.827 232.266 129.292 233.168C128.756 234.071 127.962 234.791 127.014 235.235C126.065 235.678 125.006 235.826 123.974 235.657C122.941 235.488 121.983 235.012 121.223 234.289C120.464 233.567 119.938 232.631 119.714 231.604C119.49 230.578 119.579 229.507 119.968 228.532C120.358 227.557 121.03 226.721 121.898 226.135C122.766 225.548 123.79 225.237 124.836 225.242C125.499 225.224 126.158 225.337 126.778 225.575C127.397 225.813 127.963 226.171 128.445 226.629C128.926 227.087 129.313 227.635 129.583 228.244C129.853 228.852 130.001 229.507 130.019 230.173Z" fill="#38DBD0"/>
<path d="M125.419 232.173H124.218V241.242H125.419V232.173Z" fill="#38DBD0"/>
<path d="M182.845 230C182.914 231.05 182.666 232.097 182.135 233.004C181.604 233.91 180.813 234.636 179.866 235.085C178.918 235.534 177.858 235.686 176.824 235.522C175.789 235.357 174.828 234.884 174.065 234.163C173.301 233.442 172.772 232.507 172.545 231.48C172.318 230.452 172.405 229.38 172.793 228.403C173.181 227.425 173.853 226.588 174.721 226C175.59 225.411 176.614 225.099 177.662 225.104C178.994 225.066 180.287 225.56 181.259 226.478C182.23 227.395 182.8 228.662 182.845 230Z" fill="#38DBD0"/>
<path d="M178.383 232H177.182V241.069H178.383V232Z" fill="#38DBD0"/>
<path d="M169.733 230C169.802 231.05 169.554 232.097 169.023 233.004C168.491 233.91 167.701 234.636 166.753 235.085C165.806 235.534 164.746 235.686 163.711 235.522C162.677 235.357 161.715 234.884 160.952 234.163C160.189 233.442 159.66 232.507 159.433 231.48C159.206 230.452 159.292 229.38 159.68 228.403C160.069 227.425 160.741 226.588 161.609 226C162.477 225.411 163.502 225.099 164.55 225.104C165.882 225.066 167.175 225.56 168.146 226.478C169.117 227.395 169.688 228.662 169.733 230Z" fill="#38DBD0"/>
<path d="M165.134 232H163.932V241.069H165.134V232Z" fill="#38DBD0"/>
<path d="M156.517 230C156.586 231.049 156.34 232.094 155.81 233C155.28 233.906 154.491 234.631 153.546 235.081C152.601 235.531 151.542 235.686 150.509 235.524C149.475 235.362 148.514 234.892 147.749 234.175C146.985 233.458 146.453 232.526 146.222 231.501C145.992 230.476 146.073 229.405 146.456 228.427C146.838 227.449 147.505 226.609 148.369 226.017C149.233 225.424 150.254 225.106 151.3 225.104C151.963 225.081 152.623 225.189 153.244 225.423C153.865 225.656 154.434 226.011 154.919 226.465C155.403 226.92 155.794 227.466 156.068 228.073C156.343 228.679 156.495 229.334 156.517 230Z" fill="#38DBD0"/>
<path d="M151.884 232H150.682V241.069H151.884V232Z" fill="#38DBD0"/>
<path d="M143.268 230C143.068 231.227 142.44 232.343 141.497 233.147C140.554 233.952 139.357 234.394 138.119 234.394C136.882 234.394 135.685 233.952 134.742 233.147C133.798 232.343 133.171 231.227 132.971 230C133.171 228.774 133.798 227.658 134.742 226.853C135.685 226.048 136.882 225.606 138.119 225.606C139.357 225.606 140.554 226.048 141.497 226.853C142.44 227.658 143.068 228.774 143.268 230Z" fill="#38DBD0"/>
<path d="M138.669 232H137.467V241.069H138.669V232Z" fill="#38DBD0"/>
<path d="M1038.74 241.035C1038.8 242.082 1038.55 243.124 1038.01 244.026C1037.48 244.928 1036.69 245.648 1035.74 246.093C1034.8 246.537 1033.74 246.686 1032.71 246.52C1031.68 246.355 1030.72 245.882 1029.96 245.162C1029.2 244.443 1028.67 243.511 1028.44 242.487C1028.21 241.463 1028.3 240.393 1028.68 239.417C1029.06 238.442 1029.73 237.604 1030.59 237.013C1031.46 236.422 1032.48 236.105 1033.52 236.104C1034.19 236.081 1034.85 236.19 1035.47 236.426C1036.1 236.662 1036.67 237.019 1037.15 237.478C1037.64 237.936 1038.03 238.486 1038.3 239.097C1038.57 239.707 1038.72 240.366 1038.74 241.035Z" fill="#38DBD0"/>
<path d="M1034.11 243.035H1032.9V252.104H1034.11V243.035Z" fill="#38DBD0"/>
<path d="M1091.7 240.863C1091.5 242.089 1090.88 243.205 1089.93 244.01C1088.99 244.815 1087.79 245.257 1086.55 245.257C1085.32 245.257 1084.12 244.815 1083.18 244.01C1082.23 243.205 1081.61 242.089 1081.41 240.863C1081.61 239.636 1082.23 238.52 1083.18 237.715C1084.12 236.911 1085.32 236.469 1086.55 236.469C1087.79 236.469 1088.99 236.911 1089.93 237.715C1090.88 238.52 1091.5 239.636 1091.7 240.863Z" fill="#38DBD0"/>
<path d="M1087.1 242.862H1085.9V251.931H1087.1V242.862Z" fill="#38DBD0"/>
<path d="M1078.45 240.862C1078.52 241.911 1078.28 242.956 1077.75 243.862C1077.22 244.768 1076.43 245.493 1075.48 245.944C1074.54 246.394 1073.48 246.548 1072.45 246.386C1071.41 246.225 1070.45 245.755 1069.69 245.037C1068.92 244.32 1068.39 243.388 1068.16 242.363C1067.93 241.338 1068.01 240.267 1068.39 239.289C1068.78 238.311 1069.44 237.472 1070.31 236.879C1071.17 236.286 1072.19 235.968 1073.24 235.966C1074.57 235.928 1075.87 236.421 1076.85 237.338C1077.82 238.255 1078.4 239.521 1078.45 240.862Z" fill="#38DBD0"/>
<path d="M1073.85 242.862H1072.65V251.931H1073.85V242.862Z" fill="#38DBD0"/>
<path d="M1065.2 240.862C1065.27 241.912 1065.03 242.959 1064.49 243.866C1063.96 244.773 1063.17 245.498 1062.23 245.947C1061.28 246.396 1060.22 246.549 1059.18 246.384C1058.15 246.22 1057.19 245.746 1056.42 245.025C1055.66 244.305 1055.13 243.37 1054.9 242.342C1054.68 241.315 1054.76 240.243 1055.15 239.265C1055.54 238.288 1056.21 237.45 1057.08 236.862C1057.95 236.273 1058.97 235.961 1060.02 235.966C1061.35 235.929 1062.65 236.423 1063.62 237.34C1064.59 238.258 1065.16 239.524 1065.2 240.862Z" fill="#38DBD0"/>
<path d="M1060.6 242.862H1059.4V251.931H1060.6V242.862Z" fill="#38DBD0"/>
<path d="M1051.96 240.862C1052.02 241.912 1051.78 242.959 1051.25 243.866C1050.71 244.773 1049.92 245.498 1048.98 245.947C1048.03 246.396 1046.97 246.549 1045.93 246.384C1044.9 246.22 1043.94 245.746 1043.18 245.025C1042.41 244.305 1041.88 243.37 1041.66 242.342C1041.43 241.315 1041.52 240.243 1041.9 239.265C1042.29 238.288 1042.96 237.45 1043.83 236.862C1044.7 236.273 1045.72 235.961 1046.77 235.966C1048.1 235.929 1049.4 236.423 1050.37 237.34C1051.34 238.258 1051.91 239.524 1051.96 240.862Z" fill="#38DBD0"/>
<path d="M1047.36 242.862H1046.15V251.931H1047.36V242.862Z" fill="#38DBD0"/>
<path d="M1318.73 251.345H1283.37V256.207H1318.73V251.345Z" fill="#38DBD0"/>
<path d="M1226.67 217.828H1167.7V252.759H1226.67V217.828Z" fill="#38DBD0"/>
<path d="M1274.18 234.896H1163.34V256.241H1274.18V234.896Z" fill="#38DBD0"/>
<path d="M1361.6 247.932H1312.86V256.276H1361.6V247.932Z" fill="#38DBD0"/>
<path d="M1289.97 247.896H1196.12V256.276H1289.97V247.896Z" fill="#38DBD0"/>
<path d="M1236.04 242.725H1135.98V256.276H1236.04V242.725Z" fill="#38DBD0"/>
<path d="M1270.43 247.725H1131.42V256.276H1270.43V247.725Z" fill="#38DBD0"/>
<path d="M1268.58 227.449C1268.58 228.62 1268.12 229.742 1267.29 230.57C1266.47 231.398 1265.35 231.863 1264.19 231.863C1263.02 231.863 1261.9 231.398 1261.08 230.57C1260.26 229.742 1259.79 228.62 1259.79 227.449C1259.79 226.278 1260.26 225.156 1261.08 224.328C1261.9 223.5 1263.02 223.035 1264.19 223.035C1265.35 223.035 1266.47 223.5 1267.29 224.328C1268.12 225.156 1268.58 226.278 1268.58 227.449Z" fill="#38DBD0"/>
<path d="M1264.7 229.139H1263.67V236.794H1264.7V229.139Z" fill="#38DBD0"/>
<path d="M1240.06 227.414C1240.12 228.407 1239.88 229.396 1239.38 230.252C1238.87 231.108 1238.13 231.793 1237.23 232.217C1236.33 232.641 1235.33 232.784 1234.35 232.629C1233.37 232.474 1232.47 232.027 1231.74 231.347C1231.02 230.667 1230.52 229.784 1230.3 228.813C1230.08 227.842 1230.16 226.828 1230.53 225.903C1230.89 224.977 1231.52 224.183 1232.34 223.622C1233.16 223.062 1234.12 222.761 1235.11 222.759C1236.38 222.722 1237.61 223.19 1238.54 224.063C1239.47 224.935 1240.01 226.14 1240.06 227.414Z" fill="#38DBD0"/>
<path d="M1235.49 229.311H1234.36V237.931H1235.49V229.311Z" fill="#38DBD0"/>
<path d="M1251.52 227.414C1251.58 228.407 1251.35 229.396 1250.84 230.252C1250.34 231.108 1249.59 231.793 1248.69 232.217C1247.8 232.641 1246.8 232.784 1245.82 232.629C1244.84 232.474 1243.93 232.027 1243.21 231.347C1242.48 230.667 1241.98 229.784 1241.77 228.813C1241.55 227.842 1241.63 226.828 1241.99 225.903C1242.35 224.977 1242.98 224.183 1243.8 223.622C1244.62 223.062 1245.59 222.761 1246.58 222.759C1247.85 222.722 1249.08 223.19 1250.01 224.063C1250.93 224.935 1251.48 226.14 1251.52 227.414Z" fill="#38DBD0"/>
<path d="M1247.13 229.311H1245.99V237.931H1247.13V229.311Z" fill="#38DBD0"/>
<path d="M1337.99 240.207C1338.05 241.2 1337.81 242.189 1337.31 243.045C1336.8 243.902 1336.05 244.586 1335.16 245.01C1334.26 245.434 1333.26 245.577 1332.28 245.422C1331.3 245.267 1330.4 244.82 1329.67 244.14C1328.95 243.46 1328.45 242.577 1328.23 241.606C1328.01 240.635 1328.09 239.622 1328.45 238.696C1328.82 237.77 1329.45 236.976 1330.27 236.415C1331.09 235.855 1332.05 235.554 1333.04 235.552C1333.67 235.529 1334.3 235.631 1334.89 235.853C1335.48 236.075 1336.02 236.412 1336.48 236.845C1336.94 237.278 1337.31 237.798 1337.57 238.375C1337.83 238.952 1337.97 239.575 1337.99 240.207Z" fill="#38DBD0"/>
<path d="M1333.59 242.104H1332.46V250.724H1333.59V242.104Z" fill="#38DBD0"/>
<path d="M1349.66 240.207C1349.72 241.2 1349.48 242.189 1348.98 243.045C1348.47 243.901 1347.72 244.586 1346.83 245.01C1345.93 245.434 1344.93 245.577 1343.95 245.422C1342.97 245.267 1342.06 244.82 1341.34 244.14C1340.62 243.459 1340.12 242.577 1339.9 241.606C1339.68 240.635 1339.76 239.621 1340.12 238.696C1340.49 237.77 1341.12 236.976 1341.94 236.415C1342.76 235.855 1343.72 235.554 1344.71 235.552C1345.98 235.515 1347.21 235.983 1348.14 236.855C1349.07 237.728 1349.61 238.933 1349.66 240.207Z" fill="#38DBD0"/>
<path d="M1345.26 242.104H1344.13V250.724H1345.26V242.104Z" fill="#38DBD0"/>
<path d="M1146.11 231.449C1146.23 232.839 1145.92 234.232 1145.24 235.445C1144.55 236.657 1143.51 237.632 1142.26 238.24C1141.01 238.848 1139.61 239.061 1138.23 238.851C1136.86 238.641 1135.58 238.017 1134.57 237.062C1133.56 236.107 1132.86 234.866 1132.56 233.503C1132.27 232.14 1132.39 230.719 1132.91 229.427C1133.44 228.135 1134.34 227.034 1135.5 226.268C1136.66 225.502 1138.03 225.108 1139.42 225.138C1140.27 225.111 1141.12 225.252 1141.91 225.554C1142.71 225.856 1143.44 226.314 1144.06 226.9C1144.69 227.486 1145.19 228.189 1145.54 228.97C1145.89 229.75 1146.08 230.593 1146.11 231.449Z" fill="#38DBD0"/>
<path d="M1140.17 234.001H1138.63V245.691H1140.17V234.001Z" fill="#38DBD0"/>
<path d="M1161.93 231.449C1162.05 232.839 1161.75 234.232 1161.06 235.445C1160.37 236.657 1159.33 237.632 1158.08 238.24C1156.83 238.848 1155.43 239.061 1154.06 238.851C1152.68 238.641 1151.41 238.017 1150.39 237.062C1149.38 236.107 1148.68 234.866 1148.39 233.503C1148.09 232.14 1148.21 230.719 1148.74 229.427C1149.26 228.135 1150.16 227.034 1151.33 226.268C1152.49 225.502 1153.85 225.108 1155.24 225.138C1156.09 225.111 1156.94 225.252 1157.74 225.554C1158.54 225.856 1159.27 226.314 1159.89 226.9C1160.51 227.486 1161.01 228.189 1161.36 228.97C1161.71 229.75 1161.91 230.593 1161.93 231.449Z" fill="#38DBD0"/>
<path d="M1155.99 234.001H1154.45V245.691H1155.99V234.001Z" fill="#38DBD0"/>
<path d="M1288.87 241.794C1288.93 242.787 1288.69 243.776 1288.19 244.632C1287.68 245.488 1286.94 246.173 1286.04 246.597C1285.14 247.021 1284.14 247.164 1283.16 247.009C1282.19 246.854 1281.28 246.407 1280.55 245.727C1279.83 245.047 1279.33 244.164 1279.11 243.193C1278.89 242.222 1278.97 241.209 1279.34 240.283C1279.7 239.357 1280.33 238.563 1281.15 238.002C1281.97 237.442 1282.93 237.141 1283.92 237.139C1284.55 237.116 1285.18 237.218 1285.77 237.44C1286.36 237.662 1286.9 237.999 1287.36 238.432C1287.82 238.865 1288.19 239.385 1288.45 239.962C1288.71 240.539 1288.85 241.162 1288.87 241.794Z" fill="#38DBD0"/>
<path d="M1284.47 243.759H1283.34V252.379H1284.47V243.759Z" fill="#38DBD0"/>
<path d="M1324.43 240.207C1324.49 241.2 1324.25 242.189 1323.75 243.045C1323.24 243.901 1322.5 244.586 1321.6 245.01C1320.7 245.434 1319.7 245.577 1318.72 245.422C1317.75 245.267 1316.84 244.82 1316.11 244.14C1315.39 243.459 1314.89 242.577 1314.67 241.606C1314.45 240.635 1314.53 239.621 1314.9 238.696C1315.26 237.77 1315.89 236.976 1316.71 236.415C1317.53 235.855 1318.49 235.554 1319.48 235.552C1320.75 235.515 1321.99 235.983 1322.91 236.855C1323.84 237.728 1324.38 238.933 1324.43 240.207Z" fill="#38DBD0"/>
<path d="M1320.03 242.104H1318.9V250.724H1320.03V242.104Z" fill="#38DBD0"/>
<path d="M508.692 241.966C508.747 242.89 508.525 243.809 508.054 244.604C507.583 245.399 506.886 246.034 506.052 246.427C505.217 246.819 504.285 246.951 503.376 246.805C502.466 246.659 501.621 246.242 500.95 245.608C500.279 244.974 499.813 244.153 499.612 243.25C499.411 242.347 499.485 241.404 499.823 240.543C500.162 239.683 500.75 238.944 501.511 238.423C502.272 237.902 503.172 237.623 504.093 237.621C504.679 237.603 505.263 237.701 505.811 237.909C506.36 238.118 506.862 238.433 507.289 238.836C507.716 239.24 508.06 239.724 508.301 240.261C508.542 240.798 508.675 241.377 508.692 241.966Z" fill="#38DBD0"/>
<path d="M504.608 243.689H503.544V251.689H504.608V243.689Z" fill="#38DBD0"/>
<path d="M524.07 238.896C524.146 240.11 523.857 241.318 523.241 242.365C522.625 243.412 521.71 244.248 520.615 244.766C519.52 245.284 518.295 245.46 517.099 245.27C515.904 245.081 514.792 244.535 513.909 243.703C513.026 242.872 512.412 241.793 512.147 240.606C511.881 239.42 511.977 238.181 512.421 237.049C512.865 235.918 513.637 234.947 514.637 234.262C515.637 233.577 516.819 233.209 518.029 233.207C519.58 233.16 521.087 233.733 522.219 234.799C523.351 235.865 524.017 237.338 524.07 238.896Z" fill="#38DBD0"/>
<path d="M518.715 241.207H517.342V251.69H518.715V241.207Z" fill="#38DBD0"/>
<path d="M542.4 235.552C542.496 237.085 542.132 238.611 541.354 239.932C540.576 241.254 539.42 242.31 538.037 242.963C536.653 243.616 535.107 243.836 533.597 243.595C532.088 243.354 530.685 242.662 529.572 241.61C528.459 240.557 527.687 239.193 527.356 237.694C527.025 236.195 527.15 234.631 527.715 233.204C528.28 231.778 529.259 230.555 530.525 229.694C531.791 228.834 533.286 228.376 534.814 228.38C536.766 228.324 538.66 229.048 540.082 230.392C541.504 231.736 542.337 233.592 542.4 235.552Z" fill="#38DBD0"/>
<path d="M535.672 238.449H533.922V251.691H535.672V238.449Z" fill="#38DBD0"/>
<path d="M200.762 256.553L246.037 224.794L288.669 256.553" fill="#38DBD0"/>
<path d="M370.74 234.725L416.015 202.932L458.647 234.725" fill="#38DBD0"/>
<path d="M546.004 229.724L567.526 202.241L587.812 229.724" fill="#38DBD0"/>
<path d="M351.038 240.242C347.987 238.696 345.187 236.697 342.731 234.311C344.429 234.152 346.101 233.781 347.708 233.207C345.103 231.591 342.735 229.618 340.671 227.345C342.301 227.242 343.908 226.905 345.443 226.345C343.274 224.948 341.32 223.24 339.642 221.276C340.99 221.153 342.324 220.899 343.623 220.518C341.716 219.457 340.017 218.055 338.612 216.38C339.654 216.315 340.682 216.106 341.667 215.759C339.527 214.516 337.824 212.636 336.793 210.38C335.685 212.617 333.956 214.485 331.816 215.759C332.807 216.089 333.831 216.309 334.871 216.414C333.483 218.03 331.85 219.415 330.031 220.518C331.265 220.938 332.544 221.216 333.841 221.345C332.145 223.233 330.233 224.911 328.143 226.345C329.642 226.877 331.197 227.236 332.777 227.414C330.705 229.591 328.403 231.533 325.912 233.207C327.4 233.766 328.941 234.17 330.511 234.414C328.071 236.713 325.335 238.673 322.376 240.242C326.633 241.506 331.05 242.145 335.488 242.139V249.035C335.459 249.203 335.467 249.376 335.512 249.541C335.556 249.706 335.636 249.86 335.745 249.99C335.855 250.121 335.992 250.226 336.146 250.298C336.3 250.37 336.468 250.408 336.638 250.408C336.808 250.408 336.977 250.37 337.131 250.298C337.285 250.226 337.422 250.121 337.531 249.99C337.641 249.86 337.721 249.706 337.765 249.541C337.809 249.376 337.817 249.203 337.788 249.035V242.139C342.262 242.016 346.708 241.38 351.038 240.242Z" fill="#38DBD0"/>
<path d="M1426.11 243.819C1423.06 242.273 1420.26 240.274 1417.8 237.888C1419.5 237.729 1421.17 237.358 1422.78 236.785C1420.18 235.168 1417.81 233.196 1415.74 230.923C1417.37 230.819 1418.98 230.482 1420.51 229.923C1418.35 228.525 1416.39 226.817 1414.71 224.854C1416.06 224.73 1417.4 224.476 1418.7 224.095C1416.79 223.034 1415.09 221.632 1413.68 219.957C1414.73 219.892 1415.75 219.683 1416.74 219.336C1414.6 218.093 1412.9 216.214 1411.87 213.957C1410.76 216.195 1409.03 218.063 1406.89 219.336C1407.88 219.666 1408.9 219.886 1409.94 219.992C1408.56 221.607 1406.92 222.992 1405.1 224.095C1406.34 224.515 1407.62 224.793 1408.91 224.923C1407.22 226.81 1405.3 228.488 1403.22 229.923C1404.71 230.454 1406.27 230.813 1407.85 230.992C1405.78 233.168 1403.48 235.11 1400.98 236.785C1402.47 237.343 1404.01 237.748 1405.58 237.992C1403.14 240.29 1400.41 242.25 1397.45 243.819C1401.71 245.083 1406.12 245.722 1410.56 245.716V252.612C1410.53 252.781 1410.54 252.953 1410.58 253.118C1410.63 253.283 1410.71 253.437 1410.82 253.567C1410.93 253.698 1411.06 253.803 1411.22 253.875C1411.37 253.948 1411.54 253.985 1411.71 253.985C1411.88 253.985 1412.05 253.948 1412.2 253.875C1412.36 253.803 1412.49 253.698 1412.6 253.567C1412.71 253.437 1412.79 253.283 1412.84 253.118C1412.88 252.953 1412.89 252.781 1412.86 252.612V245.716C1417.33 245.593 1421.78 244.957 1426.11 243.819Z" fill="#38DBD0"/>
<path d="M830.078 209.656C830.422 215.223 829.093 220.765 826.262 225.564C823.432 230.363 819.232 234.197 814.206 236.568C809.18 238.939 803.561 239.738 798.077 238.861C792.594 237.985 787.499 235.473 783.455 231.652C779.41 227.831 776.601 222.877 775.394 217.432C774.186 211.988 774.635 206.304 776.682 201.119C778.729 195.935 782.28 191.487 786.875 188.355C791.469 185.222 796.894 183.549 802.446 183.552C809.555 183.338 816.457 185.967 821.637 190.861C826.818 195.756 829.854 202.515 830.078 209.656Z" fill="#38DBD0"/>
<path d="M804.849 217.655H800.01V254.379H804.849V217.655Z" fill="#38DBD0"/>
</g>
<defs>
<clipPath id="clip0_1354_10597">
<rect width="1441" height="266" fill="white" transform="translate(-1)"/>
</clipPath>
</defs>
</svg>
