<svg width="76" height="20" viewBox="0 0 76 20" fill="none" xmlns="http://www.w3.org/2000/svg">
<path d="M9.09843 4.70588C10.7961 4.70588 12.1578 5.27629 13.1834 6.41711C14.2091 7.54011 14.722 9.09091 14.722 11.0695V19.7861H10.2125V11.6845C10.2125 10.6863 9.95611 9.91087 9.44327 9.35829C8.93043 8.8057 8.24076 8.52941 7.37424 8.52941C6.50772 8.52941 5.81805 8.8057 5.30521 9.35829C4.79237 9.91087 4.53595 10.6863 4.53595 11.6845V19.7861H0V0H4.53595V6.87166C4.99574 6.21212 5.62352 5.68627 6.4193 5.29412C7.21508 4.90196 8.10813 4.70588 9.09843 4.70588Z" fill="#202020"/>
<path d="M24.6116 20C23.1615 20 21.8529 19.6881 20.6858 19.0642C19.5363 18.4403 18.6256 17.549 17.9536 16.3904C17.2993 15.2317 16.9721 13.877 16.9721 12.3262C16.9721 10.7932 17.3081 9.44742 17.9801 8.28877C18.6521 7.1123 19.5717 6.21212 20.7388 5.58823C21.9059 4.96435 23.2146 4.65241 24.6647 4.65241C26.1147 4.65241 27.4234 4.96435 28.5905 5.58823C29.7577 6.21212 30.6772 7.1123 31.3492 8.28877C32.0212 9.44742 32.3572 10.7932 32.3572 12.3262C32.3572 13.8592 32.0124 15.2139 31.3227 16.3904C30.6507 17.549 29.7223 18.4403 28.5375 19.0642C27.3703 19.6881 26.0617 20 24.6116 20ZM24.6116 16.0428C25.4781 16.0428 26.212 15.7219 26.8133 15.0802C27.4322 14.4385 27.7417 13.5205 27.7417 12.3262C27.7417 11.1319 27.441 10.2139 26.8398 9.57219C26.2562 8.93048 25.5312 8.60963 24.6647 8.60963C23.7805 8.60963 23.0466 8.93048 22.463 9.57219C21.8794 10.1961 21.5876 11.1141 21.5876 12.3262C21.5876 13.5205 21.8706 14.4385 22.4365 15.0802C23.02 15.7219 23.7451 16.0428 24.6116 16.0428Z" fill="#202020"/>
<path d="M49.3795 4.86631V19.7861H44.8435V17.754C44.3837 18.4135 43.7559 18.9483 42.9602 19.3583C42.1821 19.7504 41.3155 19.9465 40.3606 19.9465C39.2288 19.9465 38.2297 19.697 37.3632 19.1979C36.4967 18.6809 35.8247 17.9412 35.3472 16.9786C34.8697 16.016 34.631 14.8841 34.631 13.5829V4.86631H39.1404V12.9679C39.1404 13.9661 39.3968 14.7415 39.9097 15.2941C40.4225 15.8467 41.1122 16.123 41.9787 16.123C42.8629 16.123 43.5614 15.8467 44.0743 15.2941C44.5871 14.7415 44.8435 13.9661 44.8435 12.9679V4.86631H49.3795Z" fill="#202020"/>
<path d="M57.1736 7.35294C57.7041 6.53298 58.3672 5.89127 59.163 5.42781C59.9588 4.94652 60.843 4.70588 61.8156 4.70588V9.54545H60.5689C59.4371 9.54545 58.5883 9.79501 58.0224 10.2941C57.4565 10.7754 57.1736 11.631 57.1736 12.861V19.7861H52.6376V4.86631H57.1736V7.35294Z" fill="#202020"/>
<path d="M70.0051 20C68.7142 20 67.5647 19.7772 66.5567 19.3316C65.5487 18.8859 64.753 18.2799 64.1694 17.5134C63.5858 16.7291 63.2587 15.8556 63.1879 14.893H67.6708C67.7239 15.41 67.9626 15.8289 68.387 16.1497C68.8114 16.4706 69.3331 16.631 69.9521 16.631C70.518 16.631 70.9512 16.5241 71.2518 16.3102C71.5702 16.0784 71.7293 15.7843 71.7293 15.4278C71.7293 15 71.5083 14.6881 71.0662 14.492C70.6241 14.2781 69.9079 14.0463 68.9175 13.7968C67.8565 13.5472 66.9723 13.2888 66.2649 13.0214C65.5576 12.7362 64.9475 12.2995 64.4346 11.7112C63.9218 11.1052 63.6654 10.2941 63.6654 9.27807C63.6654 8.42246 63.8953 7.64706 64.3551 6.95187C64.8325 6.23886 65.5222 5.67736 66.4241 5.26738C67.3437 4.8574 68.4312 4.65241 69.6868 4.65241C71.5436 4.65241 73.0026 5.11586 74.0636 6.04278C75.1423 6.9697 75.7613 8.19964 75.9204 9.73262H71.7293C71.6586 9.21569 71.4287 8.8057 71.0396 8.50267C70.6683 8.19964 70.1731 8.04813 69.5542 8.04813C69.0237 8.04813 68.6169 8.15508 68.334 8.36898C68.051 8.56506 67.9096 8.84136 67.9096 9.19786C67.9096 9.62567 68.1306 9.94652 68.5727 10.1604C69.0325 10.3743 69.7399 10.5882 70.6948 10.8021C71.7912 11.0873 72.6842 11.3726 73.3739 11.6578C74.0636 11.9251 74.6649 12.3708 75.1777 12.9947C75.7082 13.6007 75.9823 14.4207 76 15.4545C76 16.328 75.7524 17.1123 75.2573 17.8075C74.7798 18.4848 74.0813 19.0196 73.1617 19.4118C72.2598 19.8039 71.2076 20 70.0051 20Z" fill="#202020"/>
</svg>
