<svg width="124" height="124" viewBox="0 0 124 124" fill="none" xmlns="http://www.w3.org/2000/svg">
<path d="M94.4294 108.053C94.7537 105.823 95.2981 103.599 95.3589 101.36C95.5298 95.9857 95.3039 90.5908 95.6485 85.2277C95.8459 83.476 96.7135 81.8686 98.0694 80.7421C102.587 77.3598 107.42 74.409 112.047 71.1686C117.854 67.0855 119.302 60.3817 115.641 55.0013C111.943 49.5687 105.239 48.4451 99.2625 52.3748C93.5288 56.1393 87.8675 60.0168 82.1772 63.8624C76.0496 68.0092 72.9106 73.7893 72.815 81.1968C72.7223 88.4595 72.5081 95.7251 72.6297 102.985C72.7223 108.554 76.4522 112.732 81.7341 113.818C86.5788 114.814 91.6204 112.417 94.4294 108.053Z" fill="#38DBD0"/>
<path d="M38.114 9.5C40.2308 10.2761 42.4432 10.861 44.4471 11.863C49.26 14.2636 53.8991 17.0233 58.7785 19.2763C60.4135 19.9349 62.2401 19.9349 63.8751 19.2763C68.9949 16.9075 73.8889 14.0638 78.9334 11.5213C85.3042 8.33588 91.8777 10.25 94.8604 16.0272C97.8865 21.8593 95.6915 28.2909 89.3931 31.6877C83.3553 34.9426 77.2596 38.0875 71.1755 41.2584C64.6116 44.6832 58.0478 44.6832 51.484 41.2584C45.0466 37.8906 38.5513 34.6299 32.221 31.0738C27.3647 28.3488 25.4564 23.0814 27.0085 17.9181C28.442 13.1893 32.9421 9.90252 38.114 9.5Z" fill="#FFBF41"/>
<path d="M28.3404 108.053C28.016 105.823 27.4716 103.599 27.4108 101.36C27.2399 95.9857 27.4658 90.5908 27.1212 85.2277C26.9238 83.476 26.0563 81.8686 24.7003 80.7421C20.1828 77.3598 15.3497 74.409 10.7222 71.1686C4.91612 67.0855 3.46821 60.3817 7.12852 55.0013C10.8265 49.5687 17.5303 48.4451 23.5072 52.3748C29.2409 56.1393 34.9023 60.0168 40.5925 63.8624C46.7201 68.0092 49.8591 73.7893 49.9547 81.1968C50.0474 88.4595 50.2617 95.7251 50.14 102.985C50.0474 108.554 46.3176 112.732 41.0356 113.818C36.1909 114.814 31.1493 112.417 28.3404 108.053Z" fill="#4A7CE0"/>
</svg>
