<svg width="421" height="31" viewBox="0 0 421 31" fill="none" xmlns="http://www.w3.org/2000/svg">
<path d="M1.77316 19.9612C0.954261 20.0865 0.391971 20.8519 0.517251 21.6708C0.642531 22.4897 1.40794 23.052 2.22684 22.9267L1.77316 19.9612ZM420 8.94391L420.042 10.4433L420.145 7.45096L420 8.94391ZM139.5 25L139.041 23.572L139.761 26.4772L139.5 25ZM379 21.444L379.033 22.9436L379.296 19.9735L379 21.444ZM2.22684 22.9267C136.108 2.44481 291.483 -2.05068 419.855 10.4369L420.145 7.45096C291.517 -5.06156 135.892 -0.557 1.77316 19.9612L2.22684 22.9267ZM419.958 7.4445C402.238 7.94364 380.142 7.82096 355.859 7.69928C331.588 7.57766 305.148 7.45725 278.784 7.96315C226.113 8.97381 173.529 12.4835 139.041 23.572L139.959 26.428C173.971 15.4923 226.137 11.9739 278.841 10.9626C305.164 10.4575 331.569 10.5776 355.844 10.6992C380.108 10.8208 402.262 10.9442 420.042 10.4433L419.958 7.4445ZM139.761 26.4772C173.642 20.4981 222.656 17.4402 268.615 16.9663C314.602 16.4921 357.338 18.6075 378.704 22.9144L379.296 19.9735C357.594 15.5988 314.58 13.4922 268.584 13.9665C222.56 14.441 173.358 17.5019 139.239 23.5228L139.761 26.4772ZM378.967 19.9443C373.742 20.0605 364.985 19.9232 354.216 19.8167C343.467 19.7103 330.758 19.6355 317.692 19.8791C291.638 20.3649 263.919 22.1168 247.53 27.5194L248.47 30.3685C264.36 25.1301 291.628 23.3656 317.748 22.8786C330.77 22.6358 343.444 22.7103 354.186 22.8165C364.906 22.9226 373.745 23.0611 379.033 22.9436L378.967 19.9443Z" fill="#FFBF41"/>
</svg>
