<svg width="134" height="38" viewBox="0 0 134 38" fill="none" xmlns="http://www.w3.org/2000/svg">
<g clip-path="url(#clip0_2156_2116)">
<path d="M39.5701 5.2102C40.066 5.2102 40.5417 5.40721 40.8924 5.75791C41.2431 6.1086 41.4401 6.58424 41.4401 7.0802V11.2502H46.2001C46.4282 11.2324 46.6576 11.2621 46.8738 11.3372C47.0899 11.4123 47.2882 11.5313 47.4562 11.6867C47.6242 11.8421 47.7582 12.0306 47.8498 12.2403C47.9415 12.45 47.9888 12.6764 47.9888 12.9052C47.9888 13.134 47.9415 13.3604 47.8498 13.5701C47.7582 13.7798 47.6242 13.9682 47.4562 14.1237C47.2882 14.2791 47.0899 14.3981 46.8738 14.4732C46.6576 14.5483 46.4282 14.5779 46.2001 14.5602H41.4401V27.7202C41.4213 28.808 41.458 29.8961 41.5501 30.9802C41.6141 31.5496 41.8358 32.0899 42.1901 32.5402C42.5004 32.8933 42.8863 33.1719 43.3191 33.3554C43.7519 33.5389 44.2205 33.6226 44.6901 33.6002C45.3398 33.5556 45.9798 33.4175 46.5901 33.1902C47.041 33.0489 47.5274 33.0717 47.963 33.2548C48.3987 33.4378 48.7554 33.7692 48.9701 34.1902L49.0601 34.4002C49.1259 34.5972 49.1522 34.8052 49.1376 35.0124C49.1229 35.2195 49.0676 35.4218 48.9747 35.6075C48.8818 35.7933 48.7532 35.9589 48.5963 36.0949C48.4394 36.2309 48.2572 36.3347 48.0601 36.4002C46.9761 36.8271 45.8326 37.0834 44.6701 37.1602C43.6235 37.2194 42.5779 37.027 41.6209 36.599C40.664 36.171 39.8236 35.5199 39.1701 34.7002C38.5217 33.914 38.0877 32.9736 37.9101 31.9702C37.7278 30.5613 37.6542 29.1404 37.6901 27.7202V7.0802C37.6901 6.58424 37.8871 6.1086 38.2378 5.75791C38.5885 5.40721 39.0641 5.2102 39.5601 5.2102H39.5701ZM86.3101 11.2102C86.806 11.2102 87.2817 11.4072 87.6324 11.7579C87.9831 12.1086 88.1801 12.5842 88.1801 13.0802V24.9402C88.1801 26.5402 88.1801 27.7502 88.1001 28.5702C88.0125 29.5698 87.787 30.5524 87.4301 31.4902C87.0647 32.5734 86.4713 33.5657 85.6901 34.4002C83.8417 36.1522 81.3919 37.1288 78.8451 37.1288C76.2983 37.1288 73.8484 36.1522 72.0001 34.4002C71.2102 33.5823 70.6004 32.6081 70.2101 31.5402C69.8535 30.5752 69.6314 29.5657 69.5501 28.5402C69.5501 27.7702 69.4701 26.6502 69.4701 25.1702V13.0202C69.4766 12.7746 69.5315 12.5328 69.6316 12.3084C69.7316 12.084 69.8749 11.8816 70.0531 11.7126C70.2314 11.5435 70.4413 11.4113 70.6707 11.3234C70.9 11.2355 71.1445 11.1936 71.3901 11.2002C71.6357 11.2068 71.8775 11.2616 72.1019 11.3617C72.3263 11.4617 72.5287 11.605 72.6977 11.7833C72.8667 11.9615 72.999 12.1714 73.0869 12.4008C73.1748 12.6302 73.2166 12.8746 73.2101 13.1202V25.1802C73.2101 26.4502 73.2101 27.3902 73.2101 28.0102C73.2609 28.7365 73.3951 29.4546 73.6101 30.1502C73.815 30.8643 74.1928 31.5169 74.7101 32.0502C75.8292 33.0475 77.276 33.5986 78.7751 33.5986C80.2741 33.5986 81.7209 33.0475 82.8401 32.0502C83.3578 31.5189 83.7327 30.8653 83.9301 30.1502C84.1529 29.4561 84.2906 28.7375 84.3401 28.0102C84.3401 27.3502 84.3401 26.3302 84.3401 24.9402V13.1202C84.3401 12.6242 84.5371 12.1486 84.8878 11.7979C85.2385 11.4472 85.7141 11.2502 86.2101 11.2502L86.3101 11.2102ZM110.16 1.2102C110.406 1.20887 110.65 1.25633 110.877 1.34984C111.105 1.44335 111.311 1.58104 111.485 1.75495C111.659 1.92886 111.797 2.13553 111.89 2.36301C111.984 2.59049 112.031 2.83425 112.03 3.0802V24.6602C112.03 26.2102 112.03 27.3602 111.98 28.1202C111.918 29.0513 111.757 29.9731 111.5 30.8702C111.242 31.85 110.808 32.775 110.22 33.6002C108.533 35.9469 106.023 37.1235 102.69 37.1302C101.315 37.1738 99.9455 36.9355 98.6659 36.4299C97.3864 35.9242 96.2239 35.162 95.2501 34.1902C94.3165 33.2458 93.6059 32.1046 93.1701 30.8502C92.7678 29.8186 92.499 28.7399 92.3701 27.6402C92.2901 26.8002 92.2601 25.6402 92.2601 24.1402C92.2601 22.6402 92.2601 21.3002 92.3401 20.4502C92.4358 19.3764 92.6504 18.3166 92.9801 17.2902C93.5169 15.3747 94.6919 13.7 96.3104 12.5434C97.929 11.3868 99.894 10.8176 101.88 10.9302C103.139 10.8811 104.39 11.1548 105.514 11.7254C106.638 12.296 107.597 13.1445 108.3 14.1902V3.0702C108.3 2.57424 108.497 2.0986 108.848 1.74791C109.198 1.39721 109.674 1.2002 110.17 1.2002L110.16 1.2102ZM62.6901 10.9302C63.3078 10.9394 63.9235 11.003 64.5301 11.1202C64.6089 11.131 64.6861 11.1511 64.7601 11.1802C65.1549 11.317 65.4806 11.6028 65.6674 11.9765C65.8543 12.3503 65.8876 12.7823 65.7601 13.1802C65.6141 13.6287 65.3142 14.0113 64.9134 14.2601C64.5127 14.509 64.0369 14.6082 63.5701 14.5402C63.2721 14.4954 62.9714 14.472 62.6701 14.4702C61.783 14.4081 60.8934 14.5487 60.0687 14.8813C59.244 15.214 58.5058 15.73 57.9101 16.3902C57.484 16.9345 57.1835 17.5662 57.0301 18.2402C56.8524 18.9384 56.7386 19.6514 56.6901 20.3702C56.6901 20.9902 56.6901 21.9502 56.6901 23.2602V34.9402C56.6901 35.1858 56.6417 35.4289 56.5477 35.6558C56.4538 35.8827 56.316 36.0888 56.1424 36.2625C55.9687 36.4361 55.7626 36.5739 55.5357 36.6679C55.3088 36.7618 55.0656 36.8102 54.8201 36.8102C54.5745 36.8102 54.3313 36.7618 54.1045 36.6679C53.8776 36.5739 53.6714 36.4361 53.4978 36.2625C53.3241 36.0888 53.1864 35.8827 53.0924 35.6558C52.9984 35.4289 52.9501 35.1858 52.9501 34.9402V23.2402C52.9501 21.5902 52.9501 20.3702 53.0301 19.5902C53.1046 18.6542 53.2926 17.7308 53.5901 16.8402C53.896 15.8453 54.407 14.9255 55.0901 14.1402C56.0322 13.0659 57.2054 12.219 58.5217 11.6631C59.838 11.1071 61.2631 10.8565 62.6901 10.9302ZM119.38 11.2502C119.626 11.2502 119.869 11.2986 120.096 11.3925C120.323 11.4865 120.529 11.6243 120.702 11.7979C120.876 11.9716 121.014 12.1777 121.108 12.4046C121.202 12.6315 121.25 12.8746 121.25 13.1202V34.9402C121.25 35.4362 121.053 35.9118 120.702 36.2625C120.352 36.6132 119.876 36.8102 119.38 36.8102C118.884 36.8102 118.408 36.6132 118.058 36.2625C117.707 35.9118 117.51 35.4362 117.51 34.9402V13.1202C117.51 12.6242 117.707 12.1486 118.058 11.7979C118.408 11.4472 118.884 11.2502 119.38 11.2502ZM102.16 14.4602C101.311 14.4095 100.462 14.5514 99.6759 14.8752C98.8897 15.199 98.1869 15.6964 97.6201 16.3302C97.0736 16.9897 96.6869 17.7666 96.4901 18.6002C96.2619 19.4129 96.1211 20.2476 96.0701 21.0902C96.0701 21.7602 96.0101 22.6902 96.0101 23.8902V24.3702C96.0101 25.4702 96.0101 26.3702 96.0701 26.9402C96.132 27.752 96.3001 28.5521 96.5701 29.3202C96.8434 30.187 97.289 30.9897 97.8801 31.6802C98.4968 32.327 99.2457 32.8333 100.076 33.1646C100.906 33.4959 101.797 33.6445 102.69 33.6002C103.503 33.65 104.317 33.5117 105.068 33.196C105.819 32.8804 106.487 32.3959 107.02 31.7802C107.44 31.2138 107.74 30.5671 107.9 29.8802C108.081 29.2094 108.198 28.5231 108.25 27.8302C108.25 27.2202 108.25 26.3102 108.25 25.1002C108.25 23.4202 108.25 22.1702 108.25 21.3502C108.199 20.4478 108.055 19.5531 107.82 18.6802C107.62 17.8235 107.234 17.0212 106.69 16.3302C106.121 15.6962 105.417 15.1988 104.629 14.875C103.841 14.5513 102.99 14.4095 102.14 14.4602H102.16ZM13.9001 0.980195C16.8273 1.01101 19.6719 1.95474 22.0371 3.67973C24.4023 5.40472 26.17 7.82495 27.0937 10.6028C28.0175 13.3806 28.0511 16.3775 27.19 19.1754C26.3289 21.9732 24.6159 24.4325 22.2901 26.2102C22.0921 26.363 21.8656 26.4748 21.6239 26.539C21.3822 26.6032 21.1301 26.6185 20.8823 26.584C20.6346 26.5496 20.3963 26.466 20.1812 26.3383C19.9662 26.2106 19.7788 26.0412 19.6301 25.8402C19.3256 25.4351 19.1936 24.926 19.2629 24.424C19.3322 23.9219 19.5972 23.4676 20.0001 23.1602C21.6966 21.8865 22.9495 20.1113 23.5813 18.0861C24.2131 16.0609 24.1918 13.8882 23.5205 11.8758C22.8491 9.86331 21.5617 8.11305 19.8405 6.87281C18.1193 5.63257 16.0516 4.9652 13.9301 4.9652C11.8086 4.9652 9.74086 5.63257 8.01967 6.87281C6.29848 8.11305 5.01105 9.86331 4.33968 11.8758C3.66831 13.8882 3.64702 16.0609 4.27883 18.0861C4.91064 20.1113 6.16352 21.8865 7.86008 23.1602C8.26299 23.4696 8.52848 23.9246 8.59953 24.4276C8.67059 24.9306 8.54153 25.4413 8.24008 25.8502C8.09196 26.0517 7.90533 26.2217 7.69101 26.3506C7.47669 26.4794 7.23893 26.5644 6.99152 26.6007C6.74411 26.6369 6.49196 26.6237 6.24967 26.5619C6.00739 26.5 5.7798 26.3907 5.58008 26.2402C3.24042 24.4703 1.51252 22.0133 0.638082 19.213C-0.236352 16.4126 -0.213577 13.409 0.703223 10.6222C1.62002 7.83545 3.38499 5.40496 5.75122 3.67074C8.11745 1.93652 10.9666 0.985319 13.9001 0.950195V0.980195ZM15.1001 9.8302L15.2601 9.9002L18.7501 11.5402C18.9681 11.6334 19.1641 11.7715 19.3253 11.9454C19.4864 12.1193 19.6092 12.3252 19.6856 12.5496C19.762 12.7741 19.7903 13.0121 19.7687 13.2483C19.7471 13.4844 19.676 13.7133 19.5601 13.9202C19.3077 14.3356 18.9128 14.6449 18.449 14.7903C17.9852 14.9357 17.4844 14.9072 17.0401 14.7102L16.9401 14.6602L13.6901 13.1102L10.3801 14.6802C9.94839 14.9024 9.4506 14.9601 8.97955 14.8423C8.50851 14.7245 8.0964 14.4394 7.82008 14.0402L7.69008 13.9402C7.57801 13.7427 7.50741 13.5244 7.48258 13.2987C7.45775 13.0729 7.47921 12.8445 7.54567 12.6274C7.61212 12.4102 7.72217 12.2089 7.86908 12.0357C8.01598 11.8626 8.19667 11.7212 8.40008 11.6202L8.50008 11.5602L11.9901 9.9002C12.4718 9.6739 12.9956 9.55078 13.5277 9.53872C14.0598 9.52667 14.5886 9.62595 15.0801 9.8302H15.1001ZM119.36 2.10019C119.69 2.0919 120.018 2.14954 120.326 2.26974C120.633 2.38994 120.913 2.57028 121.15 2.8002C121.619 3.28984 121.882 3.94191 121.882 4.6202C121.882 5.29849 121.619 5.95055 121.15 6.4402C120.659 6.8836 120.021 7.12909 119.36 7.12909C118.699 7.12909 118.061 6.8836 117.57 6.4402C117.33 6.20333 117.143 5.91921 117.019 5.60589C116.895 5.29257 116.837 4.9569 116.85 4.6202C116.836 4.28591 116.89 3.95222 117.008 3.63936C117.127 3.32651 117.308 3.04101 117.54 2.8002C118.034 2.34049 118.686 2.08963 119.36 2.10019Z" fill="#38DBD0"/>
<path d="M130.25 7.23988C129.621 7.23988 129.006 7.05338 128.483 6.70396C127.96 6.35454 127.553 5.85789 127.312 5.27682C127.071 4.69575 127.008 4.05636 127.131 3.4395C127.254 2.82264 127.557 2.25602 128.001 1.81128C128.446 1.36655 129.013 1.06369 129.63 0.940987C130.247 0.818286 130.886 0.88126 131.467 1.12195C132.048 1.36263 132.545 1.77022 132.894 2.29317C133.244 2.81612 133.43 3.43094 133.43 4.05988C133.43 4.90327 133.095 5.71212 132.499 6.30848C131.902 6.90485 131.093 7.23988 130.25 7.23988ZM130.25 1.38988C129.898 1.38724 129.549 1.45442 129.224 1.58754C128.898 1.72065 128.602 1.91706 128.353 2.16539C128.103 2.41372 127.906 2.70903 127.772 3.03423C127.637 3.35942 127.569 3.70804 127.57 4.05988C127.548 4.42493 127.6 4.79068 127.725 5.13462C127.849 5.47856 128.042 5.79341 128.293 6.0598C128.544 6.32618 128.846 6.53846 129.182 6.68356C129.517 6.82866 129.879 6.90351 130.245 6.90351C130.611 6.90351 130.973 6.82866 131.308 6.68356C131.644 6.53846 131.947 6.32618 132.197 6.0598C132.448 5.79341 132.641 5.47856 132.765 5.13462C132.89 4.79068 132.942 4.42493 132.92 4.05988C132.924 3.70814 132.858 3.35914 132.725 3.03338C132.592 2.70763 132.396 2.41169 132.147 2.16295C131.898 1.91421 131.602 1.71769 131.277 1.58494C130.951 1.45218 130.602 1.38586 130.25 1.38988ZM131.11 5.88988L130.16 4.44988H129.56V5.88988H129.02V2.24988H130.51C130.813 2.24439 131.105 2.35739 131.326 2.56477C131.546 2.77215 131.677 3.05749 131.69 3.35988C131.695 3.62271 131.603 3.87807 131.431 4.07726C131.26 4.27645 131.021 4.40553 130.76 4.43988L131.76 5.88988H131.11ZM130.51 2.69988H129.56V3.98988H130.51C130.602 4.00129 130.694 3.99313 130.782 3.96593C130.87 3.93873 130.952 3.89312 131.021 3.83212C131.09 3.77113 131.145 3.69614 131.183 3.61214C131.221 3.52814 131.241 3.43704 131.241 3.34488C131.241 3.25273 131.221 3.16163 131.183 3.07763C131.145 2.99363 131.09 2.91864 131.021 2.85764C130.952 2.79665 130.87 2.75104 130.782 2.72384C130.694 2.69664 130.602 2.68848 130.51 2.69988Z" fill="#38DBD0"/>
</g>
<defs>
<clipPath id="clip0_2156_2116">
<rect width="133.43" height="36.24" fill="white" transform="translate(0 0.879883)"/>
</clipPath>
</defs>
</svg>
