<svg width="122" height="38" viewBox="0 0 122 38" fill="none" xmlns="http://www.w3.org/2000/svg">
<path d="M39.5701 5.20995C40.066 5.20995 40.5417 5.40697 40.8924 5.75766C41.2431 6.10836 41.4401 6.584 41.4401 7.07995V11.25H46.2001C46.4282 11.2322 46.6576 11.2618 46.8738 11.3369C47.0899 11.4121 47.2882 11.5311 47.4562 11.6865C47.6242 11.8419 47.7582 12.0304 47.8498 12.2401C47.9415 12.4497 47.9888 12.6761 47.9888 12.905C47.9888 13.1338 47.9415 13.3602 47.8498 13.5699C47.7582 13.7795 47.6242 13.968 47.4562 14.1234C47.2882 14.2788 47.0899 14.3978 46.8738 14.473C46.6576 14.5481 46.4282 14.5777 46.2001 14.56H41.4401V27.72C41.4213 28.8078 41.458 29.8959 41.5501 30.9799C41.6141 31.5494 41.8358 32.0896 42.1901 32.54C42.5004 32.893 42.8863 33.1717 43.3191 33.3552C43.7519 33.5387 44.2205 33.6223 44.6901 33.6C45.3398 33.5554 45.9798 33.4173 46.5901 33.19C47.041 33.0486 47.5274 33.0715 47.963 33.2545C48.3987 33.4376 48.7554 33.769 48.9701 34.19L49.0601 34.4C49.1259 34.5969 49.1522 34.8049 49.1376 35.0121C49.1229 35.2193 49.0676 35.4215 48.9747 35.6073C48.8818 35.793 48.7532 35.9586 48.5963 36.0947C48.4394 36.2307 48.2572 36.3344 48.0601 36.4C46.9761 36.8268 45.8326 37.0832 44.6701 37.16C43.6235 37.2192 42.5779 37.0267 41.6209 36.5987C40.664 36.1707 39.8236 35.5196 39.1701 34.7C38.5217 33.9138 38.0877 32.9734 37.9101 31.97C37.7278 30.561 37.6542 29.1402 37.6901 27.72V7.07995C37.6901 6.584 37.8871 6.10836 38.2378 5.75766C38.5885 5.40697 39.0641 5.20995 39.5601 5.20995H39.5701ZM86.3101 11.21C86.806 11.21 87.2817 11.407 87.6324 11.7577C87.9831 12.1084 88.1801 12.584 88.1801 13.08V24.94C88.1801 26.54 88.1801 27.75 88.1001 28.57C88.0125 29.5695 87.787 30.5522 87.4301 31.49C87.0647 32.5731 86.4713 33.5654 85.6901 34.4C83.8417 36.152 81.3919 37.1286 78.8451 37.1286C76.2983 37.1286 73.8484 36.152 72.0001 34.4C71.2102 33.5821 70.6004 32.6078 70.2101 31.54C69.8535 30.575 69.6314 29.5655 69.5501 28.54C69.5501 27.77 69.4701 26.65 69.4701 25.17V13.02C69.4766 12.7744 69.5315 12.5325 69.6316 12.3081C69.7316 12.0838 69.8749 11.8813 70.0531 11.7123C70.2314 11.5433 70.4413 11.4111 70.6707 11.3232C70.9 11.2353 71.1445 11.1934 71.3901 11.2C71.6357 11.2065 71.8775 11.2614 72.1019 11.3614C72.3263 11.4615 72.5287 11.6047 72.6977 11.783C72.8667 11.9613 72.999 12.1711 73.0869 12.4005C73.1748 12.6299 73.2166 12.8744 73.2101 13.12V25.18C73.2101 26.45 73.2101 27.39 73.2101 28.01C73.2609 28.7363 73.3951 29.4543 73.6101 30.15C73.815 30.8641 74.1928 31.5166 74.7101 32.0499C75.8292 33.0473 77.276 33.5984 78.7751 33.5984C80.2741 33.5984 81.7209 33.0473 82.8401 32.0499C83.3578 31.5186 83.7327 30.865 83.9301 30.15C84.1529 29.4559 84.2906 28.7373 84.3401 28.01C84.3401 27.35 84.3401 26.33 84.3401 24.94V13.12C84.3401 12.624 84.5371 12.1484 84.8878 11.7977C85.2385 11.447 85.7141 11.25 86.2101 11.25L86.3101 11.21ZM110.16 1.20995C110.406 1.20863 110.65 1.25609 110.877 1.3496C111.105 1.4431 111.311 1.5808 111.485 1.75471C111.659 1.92862 111.797 2.13529 111.89 2.36277C111.984 2.59025 112.031 2.83401 112.03 3.07995V24.66C112.03 26.2099 112.03 27.36 111.98 28.12C111.918 29.051 111.757 29.9729 111.5 30.87C111.242 31.8498 110.808 32.7747 110.22 33.6C108.533 35.9466 106.023 37.1233 102.69 37.13C101.315 37.1736 99.9455 36.9352 98.6659 36.4296C97.3864 35.924 96.2239 35.1618 95.2501 34.19C94.3165 33.2455 93.6059 32.1044 93.1701 30.85C92.7678 29.8184 92.499 28.7397 92.3701 27.6399C92.2901 26.7999 92.2601 25.6399 92.2601 24.1399C92.2601 22.6399 92.2601 21.3 92.3401 20.45C92.4358 19.3762 92.6504 18.3163 92.9801 17.29C93.5169 15.3745 94.6919 13.6998 96.3104 12.5432C97.929 11.3865 99.894 10.8174 101.88 10.93C103.139 10.8808 104.39 11.1546 105.514 11.7252C106.638 12.2958 107.597 13.1442 108.3 14.19V3.06995C108.3 2.574 108.497 2.09835 108.848 1.74766C109.198 1.39697 109.674 1.19995 110.17 1.19995L110.16 1.20995ZM62.6901 10.93C63.3078 10.9391 63.9235 11.0027 64.5301 11.12C64.6089 11.1307 64.6861 11.1509 64.7601 11.18C65.1549 11.3167 65.4806 11.6025 65.6674 11.9763C65.8543 12.35 65.8876 12.782 65.7601 13.18C65.6141 13.6285 65.3142 14.011 64.9134 14.2599C64.5127 14.5087 64.0369 14.6079 63.5701 14.54C63.2721 14.4952 62.9714 14.4718 62.6701 14.47C61.783 14.4078 60.8934 14.5484 60.0687 14.8811C59.244 15.2137 58.5058 15.7297 57.9101 16.39C57.484 16.9342 57.1835 17.566 57.0301 18.24C56.8524 18.9382 56.7386 19.6511 56.6901 20.37C56.6901 20.99 56.6901 21.95 56.6901 23.26V34.94C56.6901 35.1855 56.6417 35.4287 56.5477 35.6556C56.4538 35.8825 56.316 36.0886 56.1424 36.2622C55.9687 36.4359 55.7626 36.5736 55.5357 36.6676C55.3088 36.7616 55.0656 36.81 54.8201 36.81C54.5745 36.81 54.3313 36.7616 54.1045 36.6676C53.8776 36.5736 53.6714 36.4359 53.4978 36.2622C53.3241 36.0886 53.1864 35.8825 53.0924 35.6556C52.9984 35.4287 52.9501 35.1855 52.9501 34.94V23.24C52.9501 21.59 52.9501 20.37 53.0301 19.59C53.1046 18.654 53.2926 17.7305 53.5901 16.84C53.896 15.845 54.407 14.9253 55.0901 14.14C56.0322 13.0657 57.2054 12.2188 58.5217 11.6628C59.838 11.1069 61.2631 10.8563 62.6901 10.93ZM119.38 11.25C119.626 11.25 119.869 11.2983 120.096 11.3923C120.323 11.4863 120.529 11.624 120.702 11.7977C120.876 11.9713 121.014 12.1775 121.108 12.4043C121.202 12.6312 121.25 12.8744 121.25 13.12V34.94C121.25 35.4359 121.053 35.9115 120.702 36.2622C120.352 36.6129 119.876 36.81 119.38 36.81C118.884 36.81 118.408 36.6129 118.058 36.2622C117.707 35.9115 117.51 35.4359 117.51 34.94V13.12C117.51 12.624 117.707 12.1484 118.058 11.7977C118.408 11.447 118.884 11.25 119.38 11.25ZM102.16 14.46C101.311 14.4093 100.462 14.5512 99.6759 14.875C98.8897 15.1988 98.1869 15.6962 97.6201 16.33C97.0736 16.9895 96.6869 17.7663 96.4901 18.6C96.2619 19.4126 96.1211 20.2474 96.0701 21.09C96.0701 21.76 96.0101 22.6899 96.0101 23.8899V24.37C96.0101 25.47 96.0101 26.37 96.0701 26.94C96.132 27.7517 96.3001 28.5519 96.5701 29.32C96.8434 30.1868 97.289 30.9895 97.8801 31.68C98.4968 32.3268 99.2457 32.8331 100.076 33.1644C100.906 33.4957 101.797 33.6443 102.69 33.6C103.503 33.6497 104.317 33.5114 105.068 33.1958C105.819 32.8802 106.487 32.3957 107.02 31.78C107.44 31.2136 107.74 30.5669 107.9 29.88C108.081 29.2092 108.198 28.5228 108.25 27.83C108.25 27.22 108.25 26.31 108.25 25.1C108.25 23.42 108.25 22.17 108.25 21.35C108.199 20.4476 108.055 19.5529 107.82 18.68C107.62 17.8233 107.234 17.021 106.69 16.33C106.121 15.696 105.417 15.1986 104.629 14.8748C103.841 14.551 102.99 14.4092 102.14 14.46H102.16ZM13.9001 0.979951C16.8273 1.01076 19.6719 1.95449 22.0371 3.67949C24.4023 5.40448 26.17 7.8247 27.0937 10.6025C28.0175 13.3804 28.0511 16.3772 27.19 19.1751C26.3289 21.973 24.6159 24.4323 22.2901 26.2099C22.0921 26.3628 21.8656 26.4745 21.6239 26.5387C21.3822 26.6029 21.1301 26.6182 20.8823 26.5838C20.6346 26.5493 20.3963 26.4658 20.1812 26.3381C19.9662 26.2103 19.7788 26.041 19.6301 25.84C19.3256 25.4348 19.1936 24.9258 19.2629 24.4237C19.3322 23.9217 19.5972 23.4674 20.0001 23.16C21.6966 21.8862 22.9495 20.1111 23.5813 18.0858C24.2131 16.0606 24.1918 13.888 23.5205 11.8755C22.8491 9.86307 21.5617 8.11281 19.8405 6.87256C18.1193 5.63232 16.0516 4.96495 13.9301 4.96495C11.8086 4.96495 9.74086 5.63232 8.01967 6.87256C6.29848 8.11281 5.01105 9.86307 4.33968 11.8755C3.66831 13.888 3.64702 16.0606 4.27883 18.0858C4.91064 20.1111 6.16352 21.8862 7.86008 23.16C8.26299 23.4693 8.52848 23.9244 8.59953 24.4273C8.67059 24.9303 8.54153 25.4411 8.24008 25.85C8.09196 26.0514 7.90533 26.2215 7.69101 26.3503C7.47669 26.4791 7.23893 26.5641 6.99152 26.6004C6.74411 26.6367 6.49196 26.6235 6.24967 26.5616C6.00739 26.4998 5.7798 26.3904 5.58008 26.24C3.24042 24.47 1.51252 22.0131 0.638082 19.2127C-0.236352 16.4124 -0.213577 13.4087 0.703223 10.622C1.62002 7.83521 3.38499 5.40472 5.75122 3.6705C8.11745 1.93628 10.9666 0.985075 13.9001 0.949951V0.979951ZM15.1001 9.82995L15.2601 9.89995L18.7501 11.54C18.9681 11.6332 19.1641 11.7712 19.3253 11.9451C19.4864 12.119 19.6092 12.3249 19.6856 12.5494C19.762 12.7739 19.7903 13.0119 19.7687 13.248C19.7471 13.4842 19.676 13.7131 19.5601 13.92C19.3077 14.3353 18.9128 14.6446 18.449 14.79C17.9852 14.9354 17.4844 14.907 17.0401 14.71L16.9401 14.66L13.6901 13.11L10.3801 14.68C9.94839 14.9022 9.4506 14.9598 8.97955 14.8421C8.50851 14.7243 8.0964 14.4392 7.82008 14.04L7.69008 13.94C7.57801 13.7424 7.50741 13.5241 7.48258 13.2984C7.45775 13.0727 7.47921 12.8443 7.54567 12.6271C7.61212 12.41 7.72217 12.2087 7.86908 12.0355C8.01598 11.8623 8.19667 11.7209 8.40008 11.62L8.50008 11.56L11.9901 9.89995C12.4718 9.67366 12.9956 9.55053 13.5277 9.53848C14.0598 9.52642 14.5886 9.6257 15.0801 9.82995H15.1001ZM119.36 2.09995C119.69 2.09165 120.018 2.14929 120.326 2.2695C120.633 2.3897 120.913 2.57004 121.15 2.79995C121.619 3.2896 121.882 3.94166 121.882 4.61995C121.882 5.29824 121.619 5.9503 121.15 6.43995C120.659 6.88336 120.021 7.12884 119.36 7.12884C118.699 7.12884 118.061 6.88336 117.57 6.43995C117.33 6.20308 117.143 5.91896 117.019 5.60565C116.895 5.29233 116.837 4.95666 116.85 4.61995C116.836 4.28567 116.89 3.95198 117.008 3.63912C117.127 3.32626 117.308 3.04077 117.54 2.79995C118.034 2.34024 118.686 2.08938 119.36 2.09995Z" fill="#38DBD0"/>
</svg>
