<svg width="35" height="41" viewBox="0 0 35 41" fill="none" xmlns="http://www.w3.org/2000/svg">
<path d="M1.70612 6.51182C2.38385 4.0754 3.60153 2.3887 5.35916 1.45171C7.14701 0.523131 9.15856 0.369723 11.3938 0.991493C13.6291 1.61326 15.2574 2.77915 16.2787 4.48914C17.3001 6.19913 17.4719 8.27234 16.7942 10.7088C16.1164 13.1452 14.8988 14.8319 13.1411 15.7689C11.3835 16.7059 9.38704 16.8635 7.15178 16.2417C4.91651 15.6199 3.2731 14.4498 2.22155 12.7314C1.20021 11.0215 1.0284 8.94824 1.70612 6.51182ZM34.4542 7.94076L8.17456 34.8522L0.698503 32.7726L26.9782 5.86119L34.4542 7.94076ZM10.0935 5.49079C8.64357 5.08748 7.62996 5.92356 7.05264 7.99903C6.48369 10.0444 6.92416 11.2688 8.37406 11.6721C9.06881 11.8653 9.68364 11.7609 10.2186 11.3588C10.7535 10.9567 11.1632 10.2443 11.4477 9.22156C12.025 7.14609 11.5736 5.9025 10.0935 5.49079ZM18.4039 30.0172C19.0816 27.5808 20.2993 25.8941 22.0569 24.9571C23.8145 24.0201 25.811 23.8625 28.0462 24.4843C30.2815 25.106 31.9098 26.2719 32.9312 27.9819C33.9525 29.6919 34.1243 31.7651 33.4466 34.2015C32.7689 36.638 31.5512 38.3247 29.7935 39.2617C28.0359 40.1986 26.0395 40.3562 23.8042 39.7345C21.5689 39.1127 19.9406 37.9468 18.9193 36.2368C17.8979 34.5268 17.7261 32.4536 18.4039 30.0172ZM26.7459 28.9836C26.0511 28.7903 25.4363 28.8947 24.9014 29.2969C24.3967 29.7074 23.9979 30.439 23.7051 31.4918C23.1361 33.5372 23.5766 34.7616 25.0265 35.1649C25.7212 35.3581 26.3361 35.2537 26.871 34.8516C27.4059 34.4494 27.8156 33.737 28.1001 32.7143C28.3846 31.6916 28.4016 30.87 28.1511 30.2494C27.909 29.5988 27.4406 29.1768 26.7459 28.9836Z" fill="#202020"/>
</svg>
