<svg width="245" height="140" viewBox="0 0 245 140" fill="none" xmlns="http://www.w3.org/2000/svg">
<path d="M1.316 23.84C1.316 21.1453 1.81733 18.7797 2.82 16.743C3.854 14.7063 5.24833 13.1397 7.003 12.043C8.75767 10.9463 10.716 10.398 12.878 10.398C14.7267 10.398 16.3403 10.774 17.719 11.526C19.129 12.278 20.21 13.265 20.962 14.487V10.774H28.999V37H20.962V33.287C20.1787 34.509 19.082 35.496 17.672 36.248C16.2933 37 14.6797 37.376 12.831 37.376C10.7003 37.376 8.75767 36.8277 7.003 35.731C5.24833 34.603 3.854 33.0207 2.82 30.984C1.81733 28.916 1.316 26.5347 1.316 23.84ZM20.962 23.887C20.962 21.8817 20.398 20.2993 19.27 19.14C18.1733 17.9807 16.826 17.401 15.228 17.401C13.63 17.401 12.267 17.9807 11.139 19.14C10.0423 20.268 9.494 21.8347 9.494 23.84C9.494 25.8453 10.0423 27.4433 11.139 28.634C12.267 29.7933 13.63 30.373 15.228 30.373C16.826 30.373 18.1733 29.7933 19.27 28.634C20.398 27.4747 20.962 25.8923 20.962 23.887ZM47.9734 17.448H43.6494V37H35.6124V17.448H32.6984V10.774H35.6124V10.022C35.6124 6.79467 36.5367 4.35066 38.3854 2.69C40.2341 0.997998 42.9444 0.151998 46.5164 0.151998C47.1117 0.151998 47.5504 0.167665 47.8324 0.198998V7.014C46.2971 6.92 45.2161 7.13933 44.5894 7.672C43.9627 8.20466 43.6494 9.16033 43.6494 10.539V10.774H47.9734V17.448ZM66.3669 30.185V37H62.2779C59.3639 37 57.0923 36.295 55.4629 34.885C53.8336 33.4437 53.0189 31.1093 53.0189 27.882V17.448H49.8229V10.774H53.0189V4.382H61.0559V10.774H66.3199V17.448H61.0559V27.976C61.0559 28.7593 61.2439 29.3233 61.6199 29.668C61.9959 30.0127 62.6226 30.185 63.4999 30.185H66.3669ZM95.5657 23.464C95.5657 24.216 95.5187 24.9993 95.4247 25.814H77.2357C77.361 27.4433 77.878 28.6967 78.7867 29.574C79.7267 30.42 80.8704 30.843 82.2177 30.843C84.223 30.843 85.6174 29.997 86.4007 28.305H94.9547C94.516 30.0283 93.717 31.5793 92.5577 32.958C91.4297 34.3367 90.004 35.4177 88.2807 36.201C86.5574 36.9843 84.6304 37.376 82.4997 37.376C79.9304 37.376 77.643 36.8277 75.6377 35.731C73.6324 34.6343 72.0657 33.0677 70.9377 31.031C69.8097 28.9943 69.2457 26.613 69.2457 23.887C69.2457 21.161 69.794 18.7797 70.8907 16.743C72.0187 14.7063 73.5854 13.1397 75.5907 12.043C77.596 10.9463 79.899 10.398 82.4997 10.398C85.0377 10.398 87.2937 10.9307 89.2677 11.996C91.2417 13.0613 92.777 14.581 93.8737 16.555C95.0017 18.529 95.5657 20.832 95.5657 23.464ZM87.3407 21.349C87.3407 19.9703 86.8707 18.8737 85.9307 18.059C84.9907 17.2443 83.8157 16.837 82.4057 16.837C81.0584 16.837 79.9147 17.2287 78.9747 18.012C78.066 18.7953 77.502 19.9077 77.2827 21.349H87.3407ZM107.843 15.145C108.783 13.7037 109.958 12.5757 111.368 11.761C112.778 10.915 114.344 10.492 116.068 10.492V18.999H113.859C111.853 18.999 110.349 19.4377 109.347 20.315C108.344 21.161 107.843 22.665 107.843 24.827V37H99.8056V10.774H107.843V15.145ZM19.035 61.492C22.043 61.492 24.4557 62.4947 26.273 64.5C28.0903 66.474 28.999 69.2 28.999 72.678V88H21.009V73.759C21.009 72.0043 20.5547 70.6413 19.646 69.67C18.7373 68.6987 17.5153 68.213 15.98 68.213C14.4447 68.213 13.2227 68.6987 12.314 69.67C11.4053 70.6413 10.951 72.0043 10.951 73.759V88H2.914V53.22H10.951V65.299C11.7657 64.1397 12.878 63.2153 14.288 62.526C15.698 61.8367 17.2803 61.492 19.035 61.492ZM46.5219 88.376C43.9526 88.376 41.6339 87.8277 39.5659 86.731C37.5293 85.6343 35.9156 84.0677 34.7249 82.031C33.5656 79.9943 32.9859 77.613 32.9859 74.887C32.9859 72.1923 33.5813 69.8267 34.7719 67.79C35.9626 65.722 37.5919 64.1397 39.6599 63.043C41.7279 61.9463 44.0466 61.398 46.6159 61.398C49.1853 61.398 51.5039 61.9463 53.5719 63.043C55.6399 64.1397 57.2693 65.722 58.4599 67.79C59.6506 69.8267 60.2459 72.1923 60.2459 74.887C60.2459 77.5817 59.6349 79.963 58.4129 82.031C57.2223 84.0677 55.5773 85.6343 53.4779 86.731C51.4099 87.8277 49.0913 88.376 46.5219 88.376ZM46.5219 81.42C48.0573 81.42 49.3576 80.856 50.4229 79.728C51.5196 78.6 52.0679 76.9863 52.0679 74.887C52.0679 72.7877 51.5353 71.174 50.4699 70.046C49.4359 68.918 48.1513 68.354 46.6159 68.354C45.0493 68.354 43.7489 68.918 42.7149 70.046C41.6809 71.1427 41.1639 72.7563 41.1639 74.887C41.1639 76.9863 41.6653 78.6 42.6679 79.728C43.7019 80.856 44.9866 81.42 46.5219 81.42ZM90.4067 61.774V88H82.3697V84.428C81.555 85.5873 80.4427 86.5273 79.0327 87.248C77.654 87.9373 76.1187 88.282 74.4267 88.282C72.4214 88.282 70.651 87.8433 69.1157 86.966C67.5804 86.0573 66.3897 84.757 65.5437 83.065C64.6977 81.373 64.2747 79.3833 64.2747 77.096V61.774H72.2647V76.015C72.2647 77.7697 72.719 79.1327 73.6277 80.104C74.5364 81.0753 75.7584 81.561 77.2937 81.561C78.8604 81.561 80.098 81.0753 81.0067 80.104C81.9154 79.1327 82.3697 77.7697 82.3697 76.015V61.774H90.4067ZM104.217 66.145C105.157 64.7037 106.332 63.5757 107.742 62.761C109.152 61.915 110.718 61.492 112.442 61.492V69.999H110.233C108.227 69.999 106.723 70.4377 105.721 71.315C104.718 72.161 104.217 73.665 104.217 75.827V88H96.1796V61.774H104.217V66.145ZM126.952 88.376C124.665 88.376 122.628 87.9843 120.842 87.201C119.056 86.4177 117.646 85.3523 116.612 84.005C115.578 82.6263 114.998 81.091 114.873 79.399H122.816C122.91 80.3077 123.333 81.044 124.085 81.608C124.837 82.172 125.761 82.454 126.858 82.454C127.861 82.454 128.628 82.266 129.161 81.89C129.725 81.4827 130.007 80.9657 130.007 80.339C130.007 79.587 129.615 79.0387 128.832 78.694C128.049 78.318 126.78 77.9107 125.025 77.472C123.145 77.0333 121.578 76.579 120.325 76.109C119.072 75.6077 117.991 74.84 117.082 73.806C116.173 72.7407 115.719 71.315 115.719 69.529C115.719 68.025 116.126 66.662 116.941 65.44C117.787 64.1867 119.009 63.1997 120.607 62.479C122.236 61.7583 124.163 61.398 126.388 61.398C129.678 61.398 132.263 62.2127 134.143 63.842C136.054 65.4713 137.151 67.6333 137.433 70.328H130.007C129.882 69.4193 129.474 68.6987 128.785 68.166C128.127 67.6333 127.25 67.367 126.153 67.367C125.213 67.367 124.492 67.555 123.991 67.931C123.49 68.2757 123.239 68.7613 123.239 69.388C123.239 70.14 123.631 70.704 124.414 71.08C125.229 71.456 126.482 71.832 128.174 72.208C130.117 72.7093 131.699 73.2107 132.921 73.712C134.143 74.182 135.208 74.9653 136.117 76.062C137.057 77.1273 137.543 78.5687 137.574 80.386C137.574 81.9213 137.135 83.3 136.258 84.522C135.412 85.7127 134.174 86.6527 132.545 87.342C130.947 88.0313 129.083 88.376 126.952 88.376ZM150.853 74.84C150.853 72.1453 151.354 69.7797 152.357 67.743C153.391 65.7063 154.785 64.1397 156.54 63.043C158.295 61.9463 160.253 61.398 162.415 61.398C164.264 61.398 165.877 61.774 167.256 62.526C168.666 63.278 169.747 64.265 170.499 65.487V61.774H178.536V88H170.499V84.287C169.716 85.509 168.619 86.496 167.209 87.248C165.83 88 164.217 88.376 162.368 88.376C160.237 88.376 158.295 87.8277 156.54 86.731C154.785 85.603 153.391 84.0207 152.357 81.984C151.354 79.916 150.853 77.5347 150.853 74.84ZM170.499 74.887C170.499 72.8817 169.935 71.2993 168.807 70.14C167.71 68.9807 166.363 68.401 164.765 68.401C163.167 68.401 161.804 68.9807 160.676 70.14C159.579 71.268 159.031 72.8347 159.031 74.84C159.031 76.8453 159.579 78.4433 160.676 79.634C161.804 80.7933 163.167 81.373 164.765 81.373C166.363 81.373 167.71 80.7933 168.807 79.634C169.935 78.4747 170.499 76.8923 170.499 74.887ZM200.331 61.492C203.401 61.492 205.845 62.4947 207.663 64.5C209.511 66.474 210.436 69.2 210.436 72.678V88H202.446V73.759C202.446 72.0043 201.991 70.6413 201.083 69.67C200.174 68.6987 198.952 68.213 197.417 68.213C195.881 68.213 194.659 68.6987 193.751 69.67C192.842 70.6413 192.388 72.0043 192.388 73.759V88H184.351V61.774H192.388V65.252C193.202 64.0927 194.299 63.184 195.678 62.526C197.056 61.8367 198.607 61.492 200.331 61.492ZM214.422 74.84C214.422 72.1453 214.924 69.7797 215.926 67.743C216.96 65.7063 218.355 64.1397 220.109 63.043C221.864 61.9463 223.822 61.398 225.984 61.398C227.708 61.398 229.274 61.7583 230.684 62.479C232.126 63.1997 233.254 64.171 234.068 65.393V53.22H242.105V88H234.068V84.24C233.316 85.4933 232.235 86.496 230.825 87.248C229.447 88 227.833 88.376 225.984 88.376C223.822 88.376 221.864 87.8277 220.109 86.731C218.355 85.603 216.96 84.0207 215.926 81.984C214.924 79.916 214.422 77.5347 214.422 74.84ZM234.068 74.887C234.068 72.8817 233.504 71.2993 232.376 70.14C231.28 68.9807 229.932 68.401 228.334 68.401C226.736 68.401 225.373 68.9807 224.245 70.14C223.149 71.268 222.6 72.8347 222.6 74.84C222.6 76.8453 223.149 78.4433 224.245 79.634C225.373 80.7933 226.736 81.373 228.334 81.373C229.932 81.373 231.28 80.7933 232.376 79.634C233.504 78.4747 234.068 76.8923 234.068 74.887ZM40.561 112.774L33.464 139H24.581L20.445 121.986L16.168 139H7.332L0.188 112.774H8.225L11.938 131.527L16.356 112.774H24.863L29.328 131.433L32.994 112.774H40.561ZM68.3479 125.464C68.3479 126.216 68.3009 126.999 68.2069 127.814H50.0179C50.1432 129.443 50.6602 130.697 51.5689 131.574C52.5089 132.42 53.6526 132.843 54.9999 132.843C57.0052 132.843 58.3996 131.997 59.1829 130.305H67.7369C67.2982 132.028 66.4992 133.579 65.3399 134.958C64.2119 136.337 62.7862 137.418 61.0629 138.201C59.3396 138.984 57.4126 139.376 55.2819 139.376C52.7126 139.376 50.4252 138.828 48.4199 137.731C46.4146 136.634 44.8479 135.068 43.7199 133.031C42.5919 130.994 42.0279 128.613 42.0279 125.887C42.0279 123.161 42.5762 120.78 43.6729 118.743C44.8009 116.706 46.3676 115.14 48.3729 114.043C50.3782 112.946 52.6812 112.398 55.2819 112.398C57.8199 112.398 60.0759 112.931 62.0499 113.996C64.0239 115.061 65.5592 116.581 66.6559 118.555C67.7839 120.529 68.3479 122.832 68.3479 125.464ZM60.1229 123.349C60.1229 121.97 59.6529 120.874 58.7129 120.059C57.7729 119.244 56.5979 118.837 55.1879 118.837C53.8406 118.837 52.6969 119.229 51.7569 120.012C50.8482 120.795 50.2842 121.908 50.0649 123.349H60.1229ZM97.3098 125.464C97.3098 126.216 97.2628 126.999 97.1688 127.814H78.9798C79.1052 129.443 79.6222 130.697 80.5308 131.574C81.4708 132.42 82.6145 132.843 83.9618 132.843C85.9672 132.843 87.3615 131.997 88.1448 130.305H96.6988C96.2602 132.028 95.4612 133.579 94.3018 134.958C93.1738 136.337 91.7482 137.418 90.0248 138.201C88.3015 138.984 86.3745 139.376 84.2438 139.376C81.6745 139.376 79.3872 138.828 77.3818 137.731C75.3765 136.634 73.8098 135.068 72.6818 133.031C71.5538 130.994 70.9898 128.613 70.9898 125.887C70.9898 123.161 71.5382 120.78 72.6348 118.743C73.7628 116.706 75.3295 115.14 77.3348 114.043C79.3402 112.946 81.6432 112.398 84.2438 112.398C86.7818 112.398 89.0378 112.931 91.0118 113.996C92.9858 115.061 94.5212 116.581 95.6178 118.555C96.7458 120.529 97.3098 122.832 97.3098 125.464ZM89.0848 123.349C89.0848 121.97 88.6148 120.874 87.6748 120.059C86.7348 119.244 85.5598 118.837 84.1498 118.837C82.8025 118.837 81.6588 119.229 80.7188 120.012C79.8102 120.795 79.2462 121.908 79.0268 123.349H89.0848ZM117.577 139L109.587 128.002V139H101.55V104.22H109.587V123.443L117.53 112.774H127.447L116.543 125.934L127.541 139H117.577ZM155.325 125.464C155.325 126.216 155.278 126.999 155.184 127.814H136.995C137.121 129.443 137.638 130.697 138.546 131.574C139.486 132.42 140.63 132.843 141.977 132.843C143.983 132.843 145.377 131.997 146.16 130.305H154.714C154.276 132.028 153.477 133.579 152.317 134.958C151.189 136.337 149.764 137.418 148.04 138.201C146.317 138.984 144.39 139.376 142.259 139.376C139.69 139.376 137.403 138.828 135.397 137.731C133.392 136.634 131.825 135.068 130.697 133.031C129.569 130.994 129.005 128.613 129.005 125.887C129.005 123.161 129.554 120.78 130.65 118.743C131.778 116.706 133.345 115.14 135.35 114.043C137.356 112.946 139.659 112.398 142.259 112.398C144.797 112.398 147.053 112.931 149.027 113.996C151.001 115.061 152.537 116.581 153.633 118.555C154.761 120.529 155.325 122.832 155.325 125.464ZM147.1 123.349C147.1 121.97 146.63 120.874 145.69 120.059C144.75 119.244 143.575 118.837 142.165 118.837C140.818 118.837 139.674 119.229 138.734 120.012C137.826 120.795 137.262 121.908 137.042 123.349H147.1ZM175.545 112.492C178.616 112.492 181.06 113.495 182.877 115.5C184.726 117.474 185.65 120.2 185.65 123.678V139H177.66V124.759C177.66 123.004 177.206 121.641 176.297 120.67C175.389 119.699 174.167 119.213 172.631 119.213C171.096 119.213 169.874 119.699 168.965 120.67C168.057 121.641 167.602 123.004 167.602 124.759V139H159.565V112.774H167.602V116.252C168.417 115.093 169.514 114.184 170.892 113.526C172.271 112.837 173.822 112.492 175.545 112.492ZM189.637 125.84C189.637 123.145 190.139 120.78 191.141 118.743C192.175 116.706 193.57 115.14 195.324 114.043C197.079 112.946 199.037 112.398 201.199 112.398C202.923 112.398 204.489 112.758 205.899 113.479C207.341 114.2 208.469 115.171 209.283 116.393V104.22H217.32V139H209.283V135.24C208.531 136.493 207.45 137.496 206.04 138.248C204.662 139 203.048 139.376 201.199 139.376C199.037 139.376 197.079 138.828 195.324 137.731C193.57 136.603 192.175 135.021 191.141 132.984C190.139 130.916 189.637 128.535 189.637 125.84ZM209.283 125.887C209.283 123.882 208.719 122.299 207.591 121.14C206.495 119.981 205.147 119.401 203.549 119.401C201.951 119.401 200.588 119.981 199.46 121.14C198.364 122.268 197.815 123.835 197.815 125.84C197.815 127.845 198.364 129.443 199.46 130.634C200.588 131.793 201.951 132.373 203.549 132.373C205.147 132.373 206.495 131.793 207.591 130.634C208.719 129.475 209.283 127.892 209.283 125.887ZM233.804 139.376C231.516 139.376 229.48 138.984 227.694 138.201C225.908 137.418 224.498 136.352 223.464 135.005C222.43 133.626 221.85 132.091 221.725 130.399H229.668C229.762 131.308 230.185 132.044 230.937 132.608C231.689 133.172 232.613 133.454 233.71 133.454C234.712 133.454 235.48 133.266 236.013 132.89C236.577 132.483 236.859 131.966 236.859 131.339C236.859 130.587 236.467 130.039 235.684 129.694C234.9 129.318 233.631 128.911 231.877 128.472C229.997 128.033 228.43 127.579 227.177 127.109C225.923 126.608 224.842 125.84 223.934 124.806C223.025 123.741 222.571 122.315 222.571 120.529C222.571 119.025 222.978 117.662 223.793 116.44C224.639 115.187 225.861 114.2 227.459 113.479C229.088 112.758 231.015 112.398 233.24 112.398C236.53 112.398 239.115 113.213 240.995 114.842C242.906 116.471 244.003 118.633 244.285 121.328H236.859C236.733 120.419 236.326 119.699 235.637 119.166C234.979 118.633 234.101 118.367 233.005 118.367C232.065 118.367 231.344 118.555 230.843 118.931C230.341 119.276 230.091 119.761 230.091 120.388C230.091 121.14 230.482 121.704 231.266 122.08C232.08 122.456 233.334 122.832 235.026 123.208C236.968 123.709 238.551 124.211 239.773 124.712C240.995 125.182 242.06 125.965 242.969 127.062C243.909 128.127 244.394 129.569 244.426 131.386C244.426 132.921 243.987 134.3 243.11 135.522C242.264 136.713 241.026 137.653 239.397 138.342C237.799 139.031 235.934 139.376 233.804 139.376Z" fill="#4A7CE0"/>
</svg>
